<svg width="578" height="106" viewBox="0 0 678 156" fill="none" xmlns="http://www.w3.org/2000/svg">
    <path d="M9.93309 113.3L12.0017 116.516L14.4791 116.036L17.217 120.292L15.7637 122.364L17.8729 125.642L25.9641 113.796L24.0679 110.848L9.93309 113.3ZM17.4373 115.404L21.3753 114.631L19.0293 117.878L17.4373 115.404Z"
          fill="#1A1A1A"/>
    <path d="M23.9493 131.893L26.6123 134.369L33.3765 127.093L36.2592 129.773L38.4288 127.44L30.0005 119.604L27.8308 121.937L30.7135 124.617L23.9493 131.893Z"
          fill="#1A1A1A"/>
    <path d="M36.1942 140.606L39.3394 142.214L41.544 137.901L45.5808 139.965L43.3762 144.277L46.5214 145.885L52.323 134.537L49.1778 132.929L47.0064 137.176L42.9695 135.113L45.141 130.865L41.9958 129.257L36.1942 140.606Z"
          fill="#1A1A1A"/>
    <path d="M54.5249 148.598L64.0259 150.578L64.6573 147.548L58.6145 146.288L60.5831 136.841L57.125 136.12L54.5249 148.598Z"
          fill="#1A1A1A"/>
    <path d="M71.5643 152.203L82.199 151.705L82.0545 148.616L75.0146 148.945L74.9174 146.867L81.2083 146.573L81.0743 143.708L74.7834 144.002L74.6906 142.018L81.6368 141.693L81.4923 138.604L70.9513 139.097L71.5643 152.203Z"
          fill="#1A1A1A"/>
    <path d="M92.9626 149.311L96.428 148.21L93.4179 138.743L97.1691 137.55L96.2036 134.513L85.236 138L86.2015 141.037L89.9526 139.844L92.9626 149.311Z"
          fill="#1A1A1A"/>
    <path d="M106.651 143.74L109.826 141.929L103.327 130.532L100.152 132.342L106.651 143.74Z" fill="#1A1A1A"/>
    <path d="M120.523 132.981C122.617 131.088 123.001 129.095 122.78 127.059L119.537 127.438C119.593 128.64 119.427 129.625 118.441 130.517C117.117 131.714 115.183 131.449 113.9 130.031L113.876 130.004C112.63 128.626 112.548 126.661 113.872 125.464C114.777 124.645 115.789 124.516 116.941 124.703L117.533 121.392C115.644 120.988 113.668 121.301 111.736 123.048C108.872 125.638 108.706 129.718 111.198 132.474L111.223 132.501C113.776 135.325 117.821 135.425 120.523 132.981Z"
          fill="#1A1A1A"/>
    <path d="M133.241 119.327C134.948 116.637 134.738 113.995 132.475 112.558L132.444 112.538C130.371 111.222 128.543 112.282 126.372 114.478C125.05 115.792 124.587 116.032 124.081 115.71L124.049 115.69C123.653 115.439 123.568 114.874 124.04 114.13C124.663 113.149 125.746 112.283 127.101 111.722L125.907 108.811C124.179 109.401 122.738 110.551 121.543 112.434C119.855 115.092 120.308 117.667 122.365 118.972L122.397 118.993C124.675 120.439 126.495 119.041 128.53 117.025C129.832 115.742 130.317 115.539 130.776 115.831L130.807 115.851C131.282 116.152 131.286 116.776 130.763 117.599C129.95 118.881 128.717 119.808 127.154 120.347L128.11 123.352C130.193 122.765 131.995 121.289 133.241 119.327Z"
          fill="#1A1A1A"/>
    <path d="M23.069 51.1658C24.8429 48.0685 24.5226 45.5233 23.4596 43.163L19.7105 44.8902C20.2489 46.3131 20.4362 47.5615 19.6008 49.0202C18.4792 50.9785 16.051 51.4188 13.9528 50.2172L13.9129 50.1943C11.8747 49.0269 11.0058 46.6983 12.1274 44.74C12.8942 43.4012 14.06 42.8482 15.5169 42.6211L14.9298 38.4105C12.5018 38.6652 10.2499 39.8169 8.61338 42.6743C6.18715 46.9106 7.58755 51.879 11.664 54.2136L11.7039 54.2365C15.8802 56.6284 20.7801 55.1623 23.069 51.1658Z"
          fill="#1A1A1A"/>
    <path d="M30.5845 39.8054L34.0199 36.9508L30.1058 32.2404L34.5151 28.5764L38.4292 33.2868L41.8646 30.4322L31.5644 18.0364L28.129 20.8911L31.9842 25.5306L27.5749 29.1946L23.7196 24.555L20.2842 27.4097L30.5845 39.8054Z"
          fill="#1A1A1A"/>
    <path d="M48.4524 26.8262L60.7666 22.4171L59.4858 18.84L51.3342 21.7587L50.4725 19.3522L57.7569 16.744L56.5693 13.427L49.2849 16.0352L48.462 13.7371L56.5052 10.8572L55.2244 7.28007L43.0187 11.6504L48.4524 26.8262Z"
          fill="#1A1A1A"/>
    <path d="M67.5665 21.2243L80.6446 21.0206L80.5854 17.2215L71.9281 17.3563L71.8883 14.8006L79.6246 14.6801L79.5698 11.1573L71.8334 11.2778L71.7954 8.83714L80.3377 8.70414L80.2785 4.90505L67.3155 5.10688L67.5665 21.2243Z"
          fill="#1A1A1A"/>
    <path d="M91.2162 23.3063L95.4657 24.6843L99.2302 13.0747L103.83 14.5664L105.038 10.8425L91.5882 6.48135L90.3807 10.2052L94.9807 11.6968L91.2162 23.3063Z"
          fill="#1A1A1A"/>
    <path d="M103.069 27.3145L106.86 30.0892L109.489 28.4466L114.506 32.119L113.753 35.1354L117.618 37.9645L121.67 20.8114L118.195 18.2679L103.069 27.3145ZM112.602 26.4161L116.776 23.7929L115.519 28.5516L112.602 26.4161Z"
          fill="#1A1A1A"/>
    <path d="M121.764 42.6997L124.163 46.4701L129.333 43.1808L132.412 48.0202L127.242 51.3095L129.641 55.08L143.246 46.4239L140.847 42.6535L135.755 45.8933L132.676 41.0539L137.768 37.8141L135.369 34.0436L121.764 42.6997Z"
          fill="#1A1A1A"/>
    <path d="M240.133 61.756C250.592 61.756 256.597 57.2351 261.05 51.0948L251.197 44.0794C248.363 47.5207 245.461 49.8149 240.535 49.8149C233.923 49.8149 229.267 44.2818 229.267 37.1968V37.0618C229.267 30.1793 233.923 24.5787 240.535 24.5787C245.056 24.5787 248.16 26.738 250.859 30.1118L260.713 22.487C256.529 16.684 250.324 12.6333 240.673 12.6333C226.368 12.6333 215.774 23.4295 215.774 37.1947V37.3296C215.774 51.4321 226.638 61.756 240.133 61.756ZM280.146 60.8113H293.237V42.8627H310.038V60.8113H323.129V13.578H310.038V31.2567H293.237V13.578H280.146V60.8113ZM344.991 60.8113H383.317V49.6778H357.946V42.1879H380.618V31.864H357.946V24.7115H382.98V13.578H344.991V60.8113ZM403.493 60.8113H441.819V49.6778H416.448V42.1879H439.12V31.864H416.448V24.7115H441.482V13.578H403.493V60.8113ZM473.533 60.8113H486.624V25.0489H500.794V13.578H459.363V25.0489H473.533V60.8113ZM504.1 60.8113H517.863L521.237 52.3768H539.455L542.896 60.8113H556.931L536.826 13.2406H524.206L504.1 60.8113ZM525.085 42.1879L530.416 28.7601L535.679 42.1879H525.085ZM574.95 60.8113H588.041V42.8627H604.842V60.8113H617.933V13.578H604.842V31.2567H588.041V13.578H574.95V60.8113ZM188.378 141.676H202.141L205.515 133.241H223.733L227.175 141.676H241.21L221.102 94.105H208.484L188.378 141.676ZM209.363 123.052L214.694 109.625L219.957 123.052H209.363ZM258.621 141.676H271.712V105.913H285.882V94.4424H244.451V105.913H258.621V141.676ZM305.112 141.676H318.203V123.727H335.005V141.676H348.095V94.4424H335.005V112.121H318.203V94.4424H305.113L305.112 141.676ZM369.957 141.676H405.922V130.205H383.047V94.4424H369.957V141.676ZM424.95 141.676H463.277V130.542H437.906V123.052H460.578V112.728H437.906V105.576H462.942V94.4424H424.95V141.676ZM494.991 141.676H508.081V105.913H522.251V94.4424H480.821V105.913H494.991V141.676ZM541.752 141.676H554.909V94.4424H541.752V141.676ZM599.781 142.62C610.24 142.62 616.245 138.1 620.699 131.959L610.845 124.944C608.011 128.385 605.11 130.679 600.184 130.679C593.571 130.679 588.915 125.146 588.915 118.061V117.926C588.915 111.044 593.571 105.443 600.184 105.443C604.705 105.443 607.809 107.602 610.508 110.976L620.361 103.351C616.178 97.5484 609.972 93.4977 600.321 93.4977C586.016 93.4977 575.422 104.294 575.422 118.059V118.194C575.422 132.297 586.286 142.62 599.781 142.62ZM658.283 142.485C669.754 142.485 677.379 136.75 677.379 127.101V126.966C677.379 118.127 670.631 114.618 659.768 112.256C653.222 110.772 651.603 109.827 651.603 107.668V107.533C651.603 105.846 653.156 104.496 656.326 104.496C660.51 104.496 665.233 106.116 669.554 109.152L676.099 99.9079C670.971 95.7919 664.696 93.6326 656.666 93.6326C645.33 93.6326 638.38 99.9754 638.38 108.747V108.882C638.38 118.599 646.14 121.433 656.194 123.727C662.604 125.212 664.156 126.291 664.156 128.248V128.383C664.156 130.407 662.266 131.622 658.758 131.622C653.292 131.622 648.096 129.665 643.442 125.954L636.151 134.66C641.954 139.855 649.916 142.485 658.283 142.485Z"
          fill="#1A1A1A"/>
</svg>
