<svg width="343" height="162" viewBox="0 0 343 162" fill="none" xmlns="http://www.w3.org/2000/svg">
<path d="M19.1899 36.9995C24.7733 37.0351 30.1922 35.1343 34.5015 31.6286V15.9635H18.2833V23.0252H25.2339V27.2523C23.7733 28.1972 21.9601 28.6945 19.5928 28.6945C14.0021 28.6945 10.0231 24.6663 10.0231 19.0468V18.9473C10.0231 13.6262 13.9517 9.39907 19.0388 9.39907C22.5141 9.39907 25.0325 10.5926 27.5508 12.6813L33.2927 5.8682C29.5655 2.68545 25.1836 0.795689 18.9884 0.795689C8.05874 0.795689 0 8.75257 0 18.8976V18.9971C0 29.5399 8.20984 36.9995 19.1899 36.9995ZM52.0292 36.9498C60.7931 36.9498 67.1394 30.5345 67.1394 22.876V22.7766C67.1394 15.1181 60.8435 8.8023 52.13 8.8023C43.3661 8.8023 37.0198 15.2175 37.0198 22.876V22.9755C37.0198 30.634 43.3157 36.9498 52.0292 36.9498V36.9498ZM52.13 28.9432C48.7554 28.9432 46.3377 26.1583 46.3377 22.876V22.7766C46.3377 19.5441 48.5539 16.8089 52.0292 16.8089C55.4038 16.8089 57.8214 19.5938 57.8214 22.876V22.9755C57.8214 26.208 55.6053 28.9432 52.13 28.9432ZM80.4866 36.8503C82.7993 36.901 85.087 36.3705 87.1351 35.3087V27.8988C86.0098 28.4626 84.7703 28.7685 83.5087 28.794C81.7458 28.794 80.8896 27.9983 80.8896 26.1085V17.0078H87.2358V9.39907H80.8896V2.58599H71.3198V9.39907H68.0963V17.0078H71.3198V27.9486C71.3198 34.3638 74.7448 36.8503 80.4866 36.8503ZM90.1068 36.3033H99.6765V21.7322C99.6765 18.7981 101.389 17.2068 103.706 17.2068C105.972 17.2068 107.534 18.7981 107.534 21.7322V36.3033H117.104V18.6987C117.104 12.5818 113.628 8.8023 107.836 8.8023C103.958 8.8023 101.439 10.8413 99.6765 13.0791V0H90.1068V36.3033ZM128.587 36.9C132.163 36.9 134.732 35.5573 136.596 33.5184V36.3033H146.065V20.8371C146.065 17.0576 145.208 14.2727 143.143 12.2834C140.978 10.145 137.653 9.00122 132.768 9.00122C128.984 8.93719 125.228 9.64839 121.737 11.0899L123.702 17.7538C126.076 16.7639 128.629 16.2565 131.206 16.2619C134.883 16.2619 136.646 17.8533 136.646 20.6382V21.0857C134.534 20.3957 132.323 20.0431 130.098 20.0414C123.702 20.0414 119.42 22.9258 119.42 28.4956V28.5951C119.42 33.9659 123.399 36.9 128.587 36.9ZM132.012 30.9821C130.048 30.9821 128.638 29.888 128.638 28.048V27.9486C128.638 25.9593 130.249 24.6166 133.02 24.6166C134.295 24.6124 135.56 24.8487 136.747 25.3128V26.5561C136.747 29.2415 134.782 30.9821 132.012 30.9821V30.9821ZM149.691 36.3033H159.261V21.6825C159.261 18.7484 160.873 17.2068 163.139 17.2068C165.406 17.2068 166.866 18.7484 166.866 21.6825V36.3033H176.436V21.6825C176.436 18.7484 178.098 17.2068 180.365 17.2068C182.631 17.2068 184.092 18.7484 184.092 21.6825V36.3033H193.662V18.6489C193.662 12.3829 190.136 8.8023 184.344 8.8023C180.365 8.8023 177.594 10.4931 175.227 13.1786C173.767 10.3937 170.996 8.8023 167.37 8.8023C163.542 8.8023 161.024 10.8413 159.261 13.0791V9.39907H149.691V36.3033ZM210.585 36.3033H228.767C237.179 36.3033 242.115 32.673 242.115 26.7053V26.6058C242.115 21.8814 239.395 19.4944 235.114 18.1019C238.236 16.7592 240.553 14.3721 240.553 10.3439V10.2445C240.583 9.20475 240.398 8.16996 240.008 7.20361C239.618 6.23727 239.032 5.35976 238.287 4.62494C236.222 2.58599 233.099 1.49192 228.667 1.49192H210.585V36.3033ZM220.104 15.3667V9.24988H226.451C229.372 9.24988 230.883 10.344 230.883 12.2337V12.3332C230.883 14.3721 229.221 15.3667 226.249 15.3667H220.104ZM220.104 28.5453V22.1301H227.559C230.832 22.1301 232.343 23.3733 232.343 25.2631V25.3626C232.343 27.4015 230.631 28.5453 227.659 28.5453H220.104ZM244.986 36.3033H254.555V0H244.986V36.3033ZM266.442 36.9C270.018 36.9 272.587 35.5573 274.45 33.5184V36.3033H283.919V20.8371C283.919 17.0576 283.063 14.2727 280.998 12.2834C278.832 10.145 275.508 9.00122 270.622 9.00122C266.839 8.93719 263.083 9.64839 259.592 11.0899L261.556 17.7538C263.931 16.7639 266.483 16.2565 269.061 16.2619C272.738 16.2619 274.501 17.8533 274.501 20.6382V21.0857C272.388 20.3957 270.178 20.0432 267.953 20.0414C261.556 20.0414 257.275 22.9258 257.275 28.4956V28.5951C257.275 33.9659 261.254 36.9 266.442 36.9ZM269.867 30.9821C267.903 30.9821 266.492 29.888 266.492 28.048V27.9486C266.492 25.9593 268.104 24.6166 270.874 24.6166C272.15 24.6124 273.415 24.8487 274.601 25.3128V26.5561C274.601 29.2415 272.637 30.9821 269.867 30.9821ZM300.692 36.9498C306.685 36.9498 310.312 34.4633 312.83 30.7832L306.433 26.208C304.922 27.9486 303.462 28.9929 301.195 28.9929C297.972 28.9929 295.756 26.3572 295.756 22.876V22.7766C295.756 19.4944 298.022 16.8089 301.095 16.8089C303.411 16.8089 304.872 17.8533 306.182 19.6436L312.679 14.8694C310.362 11.2391 306.635 8.85203 301.044 8.85203C292.431 8.85203 286.438 15.2673 286.438 22.876V22.9755C286.425 24.8225 286.786 26.6534 287.499 28.3609C288.212 30.0685 289.263 31.6184 290.591 32.9198C291.918 34.2212 293.495 35.248 295.23 35.94C296.964 36.632 298.821 36.9753 300.692 36.9498V36.9498ZM314.946 36.3033H324.515V29.9875L326.983 27.1529L332.473 36.3033H343L333.279 20.1906L342.748 9.39907H331.919L324.515 18.4003V0H314.946V36.3033Z" fill="#1A1A1A"/>
<path opacity="0.3" d="M78 160.36H106.038L112.91 143.275H150.017L157.026 160.36H185.611L144.657 64H118.957L78 160.36ZM120.744 122.636L131.601 95.4365L142.32 122.636H120.744ZM211.311 162C221.07 162 228.078 158.31 233.163 152.708V160.36H259V117.852C259 107.464 256.664 99.8103 251.029 94.3431C245.119 88.4658 236.049 85.3222 222.72 85.3222C209.939 85.3222 201.006 87.6457 192.623 91.0628L197.983 109.378C204.579 106.781 210.626 105.278 218.46 105.278C228.492 105.278 233.303 109.651 233.303 117.305V118.538C227.539 116.641 221.508 115.672 215.436 115.668C197.983 115.668 186.301 123.595 186.301 138.903V139.177C186.301 153.935 197.156 162 211.311 162ZM220.659 145.735C215.299 145.735 211.451 142.728 211.451 137.671V137.397C211.451 131.93 215.849 128.24 223.408 128.24C226.889 128.228 230.341 128.878 233.577 130.153V133.57C233.575 140.951 228.215 145.735 220.659 145.735Z" fill="#1A1A1A"/>
</svg>
