<svg width="276" height="177" viewBox="0 0 276 177" fill="none" xmlns="http://www.w3.org/2000/svg">
<path opacity="0.3" d="M10.4902 18.7044H15.9286L17.2616 15.4298H24.4594L25.819 18.7044H31.364L23.4197 0.235771H18.4362L10.4902 18.7044ZM18.7794 11.4741L20.8855 6.261L22.9649 11.4741H18.7794ZM34.5098 18.7044H44.1319C48.584 18.7044 51.1965 16.7921 51.1965 13.6485V13.5961C51.1965 11.1074 49.7569 9.84995 47.4893 9.11644C49.1421 8.40913 50.3684 7.15169 50.3684 5.02976V4.97737C50.3843 4.42966 50.286 3.88456 50.0797 3.37551C49.8734 2.86646 49.5634 2.40422 49.1688 2.01714C48.0758 0.943079 46.4229 0.366754 44.077 0.366754H34.5065L34.5098 18.7044ZM39.55 7.67562V4.45343H42.909C44.4552 4.45343 45.2549 5.02976 45.2549 6.02523V6.07763C45.2549 7.15169 44.3752 7.67399 42.8023 7.67399L39.55 7.67562ZM39.55 14.6177V11.2384H43.4955C45.2283 11.2384 46.028 11.8933 46.028 12.8888V12.9412C46.028 14.0152 45.1216 14.6194 43.5488 14.6194L39.55 14.6177ZM63.8878 19.0728C68.0199 19.0728 70.3925 17.3176 72.152 14.9337L68.2598 12.2093C67.1401 13.5453 65.9938 14.436 64.0477 14.436C61.4352 14.436 59.5957 12.2879 59.5957 9.53722V9.48483C59.5957 6.81277 61.4352 4.63845 64.0477 4.63845C65.8338 4.63845 67.0601 5.47674 68.1265 6.78657L72.0187 3.82635C70.3658 1.57507 67.9132 0.00163687 64.101 0.00163687C58.4494 0.00163687 54.2639 4.1931 54.2639 9.53886V9.59126C54.2406 10.8406 54.4734 12.0818 54.9484 13.241C55.4235 14.4001 56.1311 15.4534 57.0291 16.3381C57.9271 17.2228 58.9971 17.9209 60.1755 18.3907C61.3538 18.8606 62.6163 19.0925 63.8878 19.0728ZM75.6976 18.7044H82.7888C89.5068 18.7044 93.4257 14.7749 93.4257 9.48319V9.4308C93.4257 4.13907 89.5602 0.366754 82.8955 0.366754H75.6976V18.7044ZM80.8694 14.1986V4.87258H82.9754C86.0679 4.87258 88.1206 6.57536 88.1206 9.50939V9.56178C88.1206 12.522 86.0679 14.1986 82.9754 14.1986H80.8694ZM97.4245 18.7044H112.567V14.382H102.543V11.4758H111.499V7.46769H102.543V4.6892H112.433V0.366754H97.4245V18.7044ZM116.539 18.7044H121.711V12.1553H130.535V7.93923H121.711V4.82019H131.468V0.366754H116.539V18.7044ZM144.664 19.0728C147.619 19.0911 150.488 18.0892 152.768 16.2419V7.98998H144.184V11.7099H147.863V13.9366C146.967 14.4766 145.927 14.7411 144.877 14.6963C141.92 14.6963 139.812 12.5744 139.812 9.61418V9.56178C139.812 6.75874 141.891 4.53202 144.584 4.53202C146.255 4.52574 147.865 5.14382 149.089 6.261L152.13 2.67206C150.157 0.993836 147.84 4.79323e-07 144.559 4.79323e-07C138.772 -0.00163681 134.507 4.19147 134.507 9.53559V9.58798C134.507 15.1433 138.852 19.0728 144.664 19.0728ZM156.979 18.7044H162.152V11.7361H168.79V18.7044H173.962V0.366754H168.79V7.23028H162.152V0.366754H156.979V18.7044ZM178.705 18.7044H183.904V0.366754H178.707L178.705 18.7044ZM193.659 19.0188C195.792 19.0188 197.552 18.3639 198.778 17.1588C200.031 15.9276 200.617 14.3034 200.617 11.9981V0.366754H195.475V11.9719C195.475 13.6747 194.649 14.5392 193.343 14.5392C192.196 14.5392 191.343 13.9104 190.437 12.8364L187.105 15.9276C188.411 17.6811 190.41 19.0188 193.663 19.0188H193.659ZM205.019 18.7044H210.191V13.9628L212.084 11.8933L216.776 18.7044H222.987L215.683 8.25195L222.747 0.366754H216.616L210.191 7.80661V0.366754H205.019V18.7044ZM225.813 18.7044H240.022V14.251H230.983V0.366754H225.813V18.7044ZM243.568 18.7044H248.633V8.22575L253.378 15.3512H253.485L258.257 8.17336V18.7044H263.402V0.366754H257.937L253.485 7.46605L249.035 0.366754H243.57L243.568 18.7044ZM0 50.6316H5.11848V40.5721L13.0895 50.6316H17.6214V32.2939H12.503V41.9867L4.82523 32.2939H0V50.6316ZM31.644 51C37.4023 51 41.721 46.7299 41.721 41.4628V41.4104C41.721 36.1449 37.4556 31.9272 31.6973 31.9272C25.939 31.9272 21.6203 36.1972 21.6203 41.4644V41.5168C21.6203 46.7807 25.8857 51 31.644 51ZM31.6973 46.4156C28.8715 46.4156 26.9254 44.1103 26.9254 41.4628V41.4104C26.9254 38.7645 28.8181 36.5116 31.644 36.5116C34.4965 36.5116 36.4425 38.8169 36.4425 41.4644V41.5168C36.4425 44.161 34.5498 46.4156 31.6973 46.4156ZM45.7465 50.6316H50.9183V45.3923H53.4775C58.1161 45.3923 61.5018 43.1132 61.5018 38.7907V38.7383C61.5018 34.6778 58.461 32.2939 53.7441 32.2939H45.7465V50.6316ZM50.9183 41.4104V36.564H53.3442C55.2103 36.564 56.33 37.4023 56.33 38.9741V39.0265C56.33 40.4673 55.2103 41.4104 53.3725 41.4104H50.9183ZM74.4046 51C80.1629 51 84.4817 46.7299 84.4817 41.4628V41.4104C84.4817 36.1449 80.2163 31.9272 74.458 31.9272C68.6997 31.9272 64.3809 36.1972 64.3809 41.4628V41.5152C64.3809 46.7807 68.6464 51 74.4046 51ZM74.458 46.4156C71.6321 46.4156 69.686 44.1103 69.686 41.4628V41.4104C69.686 38.7645 71.5788 36.5116 74.4046 36.5116C77.2571 36.5116 79.2032 38.8169 79.2032 41.4644V41.5168C79.2032 44.161 77.3105 46.4156 74.458 46.4156ZM88.5071 50.6316H93.6789V45.0779H95.9449L99.7038 50.6316H105.675L101.223 44.2396C103.543 43.2703 105.062 41.4104 105.062 38.6073V38.5566C105.062 36.749 104.502 35.3344 103.409 34.2865C102.156 33.0274 100.184 32.2939 97.3295 32.2939H88.5071V50.6316ZM93.6789 41.0944V36.695H97.0646C98.7974 36.695 99.8638 37.4285 99.8638 38.8693V38.9217C99.8638 40.2577 98.8507 41.096 97.0913 41.096L93.6789 41.0944ZM116.339 50.9443C120.871 50.9443 123.883 48.7176 123.883 44.9715V44.9191C123.883 41.4873 121.217 40.1251 116.927 39.2082C114.341 38.6319 113.701 38.2668 113.701 37.4269V37.3745C113.701 36.7195 114.315 36.1956 115.567 36.1956C117.455 36.2662 119.276 36.8964 120.793 38.0032L123.378 34.4142C121.352 32.8179 118.873 31.9779 115.701 31.9779C111.222 31.9779 108.476 34.4404 108.476 37.846V37.9017C108.476 41.674 111.542 42.7726 115.516 43.6649C118.048 44.2413 118.662 44.6604 118.662 45.4201V45.4725C118.662 46.2584 117.915 46.7299 116.529 46.7299C114.314 46.7035 112.176 45.9262 110.477 44.5294L107.598 47.9088C109.887 49.9243 113.033 50.946 116.339 50.946V50.9443ZM131.748 50.6316H136.919V36.7474H142.518V32.2939H126.148V36.7474H131.746L131.748 50.6316ZM154.514 50.9722C159.819 50.9722 163.258 48.3787 163.258 42.4582V32.2939H158.007V42.6154C158.007 45.1827 156.647 46.3877 154.568 46.3877C152.488 46.3877 151.129 45.1303 151.129 42.4861V32.2939H145.877V42.5892C145.877 48.3263 149.209 50.9722 154.514 50.9722ZM173.735 50.7626H178.534L186.105 32.2939H180.427L176.188 43.8991L171.949 32.2939H166.164L173.735 50.7626ZM193.969 50.7626H198.475L202.207 40.2053L205.964 50.7626H210.471L216.711 32.2939H211.351L208.098 42.9036L204.499 32.2415H200.049L196.45 42.9036L193.196 32.2939H187.731L193.969 50.7626ZM218.335 50.6316H224.147L227.746 45.1057L231.318 50.6316H237.263L230.865 41.2532L236.997 32.2939H231.185L227.853 37.4547L224.547 32.2939H218.602L224.734 41.3056L218.335 50.6316ZM245.127 50.6316H250.326V43.6895L257.417 32.2939H251.632L247.767 38.9741L243.928 32.2939H238.038L245.127 43.7681V50.6316ZM259.498 50.6316H276V46.3337H266.641L275.998 35.986V32.2939H259.816V36.5918H268.855L259.498 46.9395V50.6316Z" fill="#1A1A1A"/>
<path opacity="0.3" d="M33.4685 97.801C34.2487 97.8275 35.0251 97.6803 35.7429 97.3697C36.4606 97.0592 37.1022 96.593 37.6222 96.004V97.4839H42.5335V89.2666C42.5335 87.2581 42.0894 85.7782 41.0183 84.7211C39.895 83.5847 38.1708 82.9769 35.6368 82.9769C33.6744 82.9429 31.7263 83.3208 29.9156 84.0868L30.9361 87.6281C32.1678 87.1021 33.4916 86.8324 34.8286 86.8353C36.7356 86.8353 37.65 87.681 37.65 89.1609V89.3988C36.5543 89.0321 35.4079 88.8447 34.2538 88.8438C30.9361 88.8438 28.7155 90.3766 28.7155 93.3364V93.3893C28.7155 96.2418 30.7777 97.801 33.4685 97.801ZM35.2449 94.6562C34.2244 94.6562 33.4946 94.0748 33.4946 93.0969V93.0441C33.4946 91.987 34.3306 91.2734 35.7674 91.2734C36.4293 91.2717 37.0854 91.3979 37.7006 91.6451V92.3058C37.7006 93.7312 36.6817 94.6562 35.2466 94.6562H35.2449ZM55.6479 97.801C58.9917 97.801 61.8931 94.9733 61.8931 90.3221V90.2692C61.8931 85.6973 58.995 82.8695 55.6234 82.8695C53.5073 82.8695 52.3056 83.9018 51.3374 85.0894V78.1935H46.3738V97.4839H51.3374V95.7397C51.8471 96.3996 52.5024 96.9297 53.2509 97.2877C53.9993 97.6456 54.8202 97.8214 55.6479 97.801ZM54.1049 93.5991C52.513 93.5991 51.2312 92.2513 51.2312 90.3485V90.2956C51.2312 88.4193 52.5113 87.0715 54.1049 87.0715C55.7246 87.0715 57.003 88.4193 57.003 90.2956V90.3485C57.0063 92.2777 55.7262 93.5991 54.1049 93.5991ZM72.1583 97.8275C75.2671 97.8275 77.148 96.5061 78.4542 94.5504L75.1364 92.1191C74.3527 93.0441 73.5951 93.5991 72.4195 93.5991C70.7459 93.5991 69.5981 92.1984 69.5981 90.3485V90.2956C69.5981 88.5514 70.7737 87.1243 72.3673 87.1243C73.569 87.1243 74.3266 87.6793 75.0058 88.6307L78.3758 86.0937C77.1741 84.1645 75.2409 82.896 72.3412 82.896C67.8739 82.896 64.7652 86.3051 64.7652 90.3485V90.4013C64.7587 91.3829 64.9458 92.3558 65.3157 93.2632C65.6856 94.1706 66.2308 94.9942 66.9193 95.6858C67.6078 96.3774 68.4258 96.9231 69.3254 97.2908C70.225 97.6585 71.1881 97.841 72.1583 97.8275ZM86.9706 97.801C89.0867 97.801 90.3145 96.7687 91.2811 95.5811V97.4839H96.2447V78.1919H91.2811V84.9309C90.7638 84.2729 90.1033 83.7446 89.3512 83.3871C88.599 83.0296 87.7754 82.8525 86.9445 82.8695C83.6006 82.8695 80.727 85.6973 80.727 90.3485V90.4013C80.727 94.9733 83.6268 97.801 86.9706 97.801ZM88.4858 93.5991C86.8939 93.5991 85.5877 92.2513 85.5877 90.3485V90.2956C85.5877 88.3929 86.8939 87.0715 88.4858 87.0715C90.0778 87.0715 91.3595 88.4193 91.3595 90.2956V90.3485C91.3595 92.2513 90.0794 93.5991 88.4858 93.5991ZM107.217 97.8275C110.038 97.8275 111.998 96.6646 113.356 94.9204L110.613 92.6212C109.592 93.6255 108.654 94.0748 107.478 94.0748C105.937 94.0748 104.813 93.2819 104.422 91.7211H113.878C113.905 91.3775 113.905 91.0075 113.905 90.6887C113.905 86.4868 111.66 82.8662 106.773 82.8662C102.593 82.8662 99.6408 86.1697 99.6408 90.3452V90.398C99.6408 94.8412 102.776 97.8275 107.217 97.8275ZM104.343 89.1593C104.604 87.6 105.493 86.5694 106.799 86.5694C108.157 86.5694 109.072 87.5736 109.255 89.1593H104.343ZM118.215 97.4839H123.154V87.202H126.314V83.3452H123.074V83.0017C123.074 82.0767 123.571 81.6539 124.485 81.6539C125.114 81.6491 125.741 81.7467 126.34 81.9429V78.4016C125.286 78.1047 124.194 77.971 123.1 78.0052C121.427 78.0052 120.279 78.3769 119.417 79.2473C118.581 80.093 118.215 81.3087 118.215 82.9472V83.2643H116.569V87.202H118.215V97.4839ZM135.875 101.765C138.827 101.765 140.814 101.052 142.093 99.7567C143.346 98.4881 143.921 96.6646 143.921 94.0483V83.1883H138.958V84.8813C138.411 84.2341 137.73 83.7179 136.962 83.3699C136.194 83.022 135.359 82.8511 134.518 82.8695C131.253 82.8695 128.405 85.4066 128.405 89.5292V89.5821C128.405 93.6783 131.2 96.2154 134.675 96.2154C135.515 96.2211 136.346 96.0309 137.102 95.6597C137.859 95.2885 138.52 94.7462 139.036 94.0748V94.6297C139.036 96.9008 137.808 98.1446 135.326 98.1446C133.591 98.1478 131.886 97.6825 130.387 96.7968L128.795 100.127C130.989 101.246 133.419 101.808 135.875 101.765ZM136.161 92.357C134.463 92.357 133.263 91.1942 133.263 89.6085V89.5557C133.263 87.97 134.464 86.7808 136.161 86.7808C137.834 86.7808 139.034 87.9436 139.034 89.5292V89.5821C139.037 89.9584 138.964 90.3313 138.819 90.6778C138.674 91.0244 138.46 91.3372 138.191 91.5971C137.922 91.8571 137.603 92.0585 137.254 92.1892C136.905 92.3199 136.534 92.377 136.162 92.357H136.161ZM147.892 97.4839H152.856V89.7407C152.856 88.1814 153.744 87.3358 154.946 87.3358C156.121 87.3358 156.931 88.1814 156.931 89.7407V97.4839H161.895V88.1286C161.895 84.878 160.092 82.8695 157.088 82.8695C155.076 82.8695 153.77 83.953 152.856 85.1406V78.1919H147.892V97.4839ZM165.761 81.8917H170.934V78.1919H165.761V81.8917ZM165.867 97.4839H170.831V83.1867H165.867V97.4839ZM174.904 81.8917H180.077V78.1919H174.904V81.8917ZM174.931 101.792C178.144 101.792 179.972 100.47 179.972 96.8496V83.1867H175.011V96.6382C175.011 97.8803 174.514 98.3031 173.548 98.3031C173.33 98.3075 173.111 98.2987 172.894 98.2767V101.607C173.568 101.716 174.247 101.778 174.929 101.792H174.931ZM184.1 97.4839H189.064V94.1276L190.344 92.6212L193.191 97.4839H198.651L193.609 88.9214L198.522 83.1867H192.906L189.064 87.97V78.1919H184.1V97.4839ZM201.264 97.4839H206.227V78.1919H201.264V97.4839ZM210.303 97.4839H215.266V89.7142C215.266 88.155 216.102 87.3358 217.278 87.3358C218.453 87.3358 219.211 88.155 219.211 89.7142V97.4839H224.174V89.7142C224.174 88.155 225.037 87.3358 226.212 87.3358C227.388 87.3358 228.145 88.155 228.145 89.7142V97.4839H233.109V88.1022C233.109 84.7723 231.28 82.8695 228.276 82.8695C226.212 82.8695 224.775 83.7681 223.547 85.1951C222.79 83.7152 221.353 82.8695 219.472 82.8695C217.487 82.8695 216.18 83.953 215.268 85.1406V83.185H210.303V97.4839ZM22 129.692H26.9636V121.949C26.9636 120.39 27.8518 119.544 29.0535 119.544C30.2291 119.544 31.0389 120.39 31.0389 121.949V129.692H36.0025V120.337C36.0025 117.086 34.2 115.078 31.1957 115.078C29.1841 115.078 27.8779 116.214 26.9636 117.404V115.395H22V129.692ZM47.0791 130.036C51.6247 130.036 54.9164 126.627 54.9164 122.557V122.504C54.9164 118.434 51.6509 115.078 47.1314 115.078C42.5858 115.078 39.2942 118.487 39.2942 122.557V122.61C39.2942 126.678 42.5597 130.036 47.0791 130.036ZM47.1314 125.783C46.7235 125.775 46.3212 125.685 45.9482 125.518C45.5751 125.351 45.2388 125.11 44.959 124.81C44.6791 124.509 44.4614 124.156 44.3186 123.769C44.1757 123.382 44.1106 122.971 44.1271 122.559V122.506C44.1271 120.788 45.2766 119.334 47.0791 119.334C47.487 119.342 47.8893 119.432 48.2624 119.599C48.6354 119.766 48.9717 120.007 49.2515 120.307C49.5314 120.608 49.7491 120.961 49.892 121.348C50.0348 121.735 50.0999 122.146 50.0834 122.559V122.611C50.0834 124.328 48.934 125.781 47.1314 125.781V125.783ZM58.3125 133.922H63.2761V127.948C63.7858 128.608 64.4411 129.138 65.1896 129.496C65.938 129.854 66.7589 130.03 67.5866 130.009C70.9305 130.009 73.8319 127.182 73.8319 122.53V122.478C73.8319 117.906 70.9337 115.078 67.5621 115.078C65.446 115.078 64.2443 116.11 63.2761 117.298V115.395H58.3125V133.922ZM66.0452 125.809C64.4533 125.809 63.1716 124.461 63.1716 122.559V122.506C63.1716 120.629 64.4517 119.282 66.0452 119.282C67.6649 119.282 68.9434 120.629 68.9434 122.506V122.559C68.945 124.486 67.6649 125.807 66.0452 125.807V125.809ZM87.3119 133.922H92.2755V115.395H87.3119V117.139C86.7945 116.481 86.1341 115.953 85.3819 115.596C84.6298 115.238 83.8062 115.061 82.9753 115.078C79.6314 115.078 76.7578 117.906 76.7578 122.557V122.61C76.7578 127.182 79.6559 130.009 83.0031 130.009C85.1191 130.009 86.3469 128.977 87.3135 127.79L87.3119 133.922ZM84.515 125.807C82.923 125.807 81.6168 124.46 81.6168 122.557V122.504C81.6168 120.601 82.923 119.28 84.515 119.28C86.1069 119.28 87.3886 120.628 87.3886 122.504V122.557C87.3886 124.46 86.1069 125.807 84.515 125.807ZM96.2447 129.692H101.21V125.253C101.21 121.949 102.673 120.443 105.259 120.443H105.677V115.157C103.326 115.052 102.02 116.32 101.21 118.276V115.395H96.2463L96.2447 129.692ZM114.349 130.009C117.797 130.009 120.122 128.371 120.122 125.226V125.173C120.122 122.398 117.902 121.421 115.106 120.628C113.617 120.178 112.807 119.914 112.807 119.359V119.306C112.807 118.91 113.199 118.619 113.957 118.619C115.08 118.619 116.674 119.121 118.137 119.941L119.835 116.769C118.084 115.677 116.066 115.1 114.009 115.104C110.744 115.104 108.34 116.797 108.34 119.835V119.888C108.34 122.768 110.561 123.72 113.356 124.46C114.845 124.883 115.629 125.12 115.629 125.675V125.728C115.629 126.23 115.237 126.495 114.375 126.495C112.635 126.425 110.95 125.857 109.517 124.856L107.663 127.895C109.617 129.292 111.956 130.032 114.349 130.009ZM128.821 129.981C130.021 130.009 131.207 129.727 132.27 129.164V125.226C131.686 125.526 131.043 125.688 130.389 125.702C129.475 125.702 129.03 125.279 129.03 124.275V119.438H132.322V115.395H129.03V111.775H124.069V115.395H122.395V119.438H124.069V125.253C124.069 128.66 125.843 129.981 128.821 129.981ZM140.473 130.008C142.484 130.008 143.791 128.924 144.705 127.737V129.692H149.669V115.395H144.705V123.138C144.705 124.698 143.817 125.543 142.641 125.543C141.439 125.543 140.63 124.698 140.63 123.138V115.395H135.666V124.75C135.666 127.999 137.469 130.009 140.473 130.009V130.008ZM158.211 129.796H162.731L168.373 115.395H163.227L160.51 123.746L157.793 115.395H152.568L158.211 129.796ZM174.171 129.796H178.431L180.782 122.37L183.081 129.796H187.367L191.73 115.393H186.948L185.041 122.635L182.848 115.342H178.745L176.576 122.583L174.722 115.395H169.864L174.171 129.796ZM193.297 129.692H198.522L200.743 126.017L202.937 129.692H208.267L203.51 122.451L208.16 115.395H202.909L200.82 118.91L198.73 115.395H193.374L198.05 122.478L193.297 129.692ZM215.033 134C217.854 134 219.186 132.679 220.414 129.349L225.585 115.395H220.491L217.826 124.01L215.005 115.395H209.806L215.344 129.428C215.224 129.622 215.053 129.779 214.85 129.881C214.647 129.984 214.421 130.028 214.195 130.009C213.422 129.935 212.678 129.672 212.027 129.243L210.485 132.758C211.867 133.567 213.435 133.995 215.031 134H215.033ZM227.884 129.692H240.998V125.702H234.443L241 118.699V115.395H228.119V119.386H234.415L227.884 126.389V129.692Z" fill="#1A1A1A"/>
<path opacity="0.3" d="M48.0495 176.63H53.0396V158.24H49.3559L44 159.753L44.9667 163.666L48.0495 162.961V176.63ZM56.9847 176.63H71.4586V172.508H63.9065L67.0416 170.317C69.7587 168.361 71.274 166.848 71.274 163.926V163.873C71.274 160.429 68.5308 158.056 64.5335 158.056C60.982 158.056 59.047 159.438 57.0876 161.968L60.5101 164.812C61.947 163.168 62.9137 162.464 64.1432 162.464C65.3728 162.464 66.1811 163.168 66.1811 164.316C66.1811 165.412 65.5279 166.272 63.8297 167.603L56.9847 172.82V176.63ZM81.9874 176.997C86.0631 176.997 89.0414 174.623 89.0414 170.919V170.867C89.0414 167.763 86.9252 166.302 84.3126 165.728L88.6757 161.998V158.37H75.4559V162.466H82.4577L78.253 166.248L78.9845 168.883H81.1269C83.0341 168.883 84.1069 169.587 84.1069 170.761V170.813C84.1069 171.934 83.1925 172.665 81.7555 172.665C80.0818 172.665 78.6988 171.908 77.3925 170.578L74.2051 173.76C75.9784 175.717 78.4604 176.997 81.9874 176.997ZM101.427 176.63H106.339V173.084H108.665V169.302H106.339V158.24H101.216L91.7324 169.509L92.5685 173.084H101.427V176.63ZM97.0622 169.326L101.427 164.083V169.326H97.0622ZM118.616 176.997C123.058 176.997 126.168 174.571 126.168 170.501V170.449C126.168 166.484 123.188 164.658 119.898 164.658C118.885 164.644 117.883 164.867 116.972 165.311L117.129 162.546H125.358V158.37H113.13L112.607 167.63L115.612 169.302C116.482 168.728 117.496 168.412 118.538 168.389C120.13 168.389 121.229 169.197 121.229 170.501V170.554C121.229 171.858 120.208 172.693 118.538 172.693C116.996 172.693 115.586 171.962 114.096 170.71L111.198 174.101C112.179 175.053 113.34 175.8 114.614 176.297C115.888 176.794 117.249 177.032 118.616 176.997ZM137.375 176.997C141.372 176.997 144.638 174.518 144.638 170.423V170.371C144.638 166.719 141.816 164.685 138.603 164.685C137.163 164.678 135.766 165.176 134.656 166.091C134.891 163.796 135.962 162.205 138.105 162.205C139.568 162.205 140.613 162.753 141.738 163.587L144.115 160.014C142.384 158.655 140.23 157.943 138.028 158.004C132.306 158.004 129.537 162.335 129.537 168.022V168.074C129.537 171.491 130.425 173.552 131.782 174.908C133.09 176.212 134.788 176.997 137.375 176.997ZM137.166 173.058C135.574 173.058 134.579 172.014 134.579 170.684V170.632C134.579 169.328 135.518 168.309 137.114 168.309C138.709 168.309 139.7 169.352 139.7 170.656V170.708C139.7 172.039 138.759 173.056 137.166 173.056V173.058ZM148.295 176.63H153.888L161.959 162.179V158.37H147.876V162.622H156.342L148.295 176.63ZM171.992 176.943C176.381 176.943 179.516 174.83 179.516 171.569V171.517C179.516 169.248 178.236 168.022 176.381 167.161C177.792 166.378 178.889 165.178 178.889 163.196V163.144C178.889 160.222 176.094 158.057 171.99 158.057C167.887 158.057 165.091 160.222 165.091 163.144V163.196C165.091 165.178 166.189 166.378 167.599 167.161C165.64 167.996 164.464 169.326 164.464 171.543V171.595C164.468 174.778 167.603 176.943 171.992 176.943ZM171.992 165.778C170.633 165.778 169.747 164.918 169.747 163.77V163.718C169.747 162.699 170.609 161.814 171.992 161.814C173.375 161.814 174.237 162.727 174.237 163.744V163.796C174.239 164.944 173.35 165.778 171.992 165.778ZM171.992 173.16C170.294 173.16 169.353 172.195 169.353 171.1V171.046C169.353 169.872 170.45 169.063 171.992 169.063C173.533 169.063 174.631 169.872 174.631 171.046V171.098C174.631 172.195 173.69 173.16 171.992 173.16ZM189.157 176.997C194.643 176.997 197.622 172.927 197.622 166.954V166.902C197.622 163.537 196.759 161.45 195.427 160.146C194.042 158.763 192.475 158.007 189.81 158.007C185.63 158.007 182.521 160.615 182.521 164.658V164.711C182.521 168.284 185.107 170.475 188.66 170.475C190.094 170.5 191.481 169.967 192.527 168.988C192.292 171.336 191.168 172.797 189.078 172.797C187.639 172.795 186.248 172.277 185.159 171.336L182.782 174.832C184.587 176.277 186.843 177.044 189.157 176.997ZM190.045 166.848C188.453 166.848 187.432 165.829 187.432 164.448V164.396C187.432 162.987 188.399 161.944 189.993 161.944C191.586 161.944 192.605 163.013 192.605 164.422V164.474C192.605 165.805 191.639 166.848 190.045 166.848ZM209.509 176.997C214.734 176.997 218 172.666 218 167.5V167.448C218 162.283 214.76 158.005 209.561 158.005C204.362 158.005 201.07 162.335 201.07 167.502V167.554C201.07 172.717 204.284 176.997 209.509 176.997ZM209.561 172.51C207.523 172.51 206.165 170.423 206.165 167.502V167.449C206.165 164.528 207.497 162.493 209.509 162.493C211.521 162.493 212.905 164.606 212.905 167.502V167.554C212.905 170.448 211.599 172.508 209.561 172.508V172.51Z" fill="#1A1A1A"/>
</svg>
