<svg width="272" height="496" viewBox="0 0 272 496" fill="none" xmlns="http://www.w3.org/2000/svg">
<path d="M270.852 52.353C270.536 51.9256 262.849 41.8569 243.055 44.617C242.765 44.6571 242.483 44.746 242.221 44.8799C231.136 50.4733 212.622 59.6148 210.12 60.3101C210.041 60.3305 209.967 60.3562 209.894 60.3819C207.898 58.945 205.986 57.3957 204.167 55.7417C202.768 54.3698 201.295 53.0751 199.755 51.8635C199.877 51.7173 199.983 51.5585 200.071 51.3898C204.028 43.7673 208.717 39.0804 214.001 37.4629C217.141 36.4623 220.539 36.6568 223.543 38.0091C224.157 38.3435 224.877 38.4267 225.55 38.241C226.218 38.0569 226.786 37.6163 227.131 37.0152L231.304 29.6603C231.474 29.3624 231.581 29.0328 231.619 28.6918C231.657 28.3508 231.625 28.0056 231.525 27.6775C231.334 27.0437 230.906 26.5083 230.329 26.1835C229.012 25.1692 224.281 18.4272 220.614 12.7047C220.364 12.3211 220.019 12.0084 219.613 11.7964C219.207 11.5845 218.754 11.4806 218.296 11.4946C218.001 11.5049 217.711 11.5101 217.427 11.5103C204.15 11.5103 199.74 1.97175 199.566 1.56972C199.421 1.2384 199.208 0.940956 198.941 0.696239C198.675 0.451522 198.36 0.264868 198.017 0.148109C197.672 0.0285285 197.305 -0.0194422 196.94 0.00711341C196.575 0.033669 196.219 0.134195 195.894 0.30258C190.41 3.17182 188.988 8.58969 189.192 13.5031C171.358 15.0331 150.3 32.2553 149.415 32.9919C149.02 33.3113 148.731 33.7418 148.584 34.2276C148.438 34.7135 148.441 35.2322 148.593 35.7164C148.75 36.2028 149.047 36.6325 149.446 36.9526C149.844 37.2727 150.328 37.4692 150.837 37.518C181.785 40.7109 200.235 59.1744 200.42 59.3553C200.451 59.3962 200.489 59.4325 200.53 59.463C209.176 67.3174 216.915 70.7525 221.978 72.2568C215.214 76.3872 207.432 77.0258 198.791 74.1365C193.642 72.3643 188.834 69.7274 184.571 66.3392C184.513 66.2925 184.45 66.2411 184.387 66.2004C143.371 37.0412 126.923 39.6159 126.245 39.74C125.906 39.7937 125.58 39.9147 125.289 40.0959C124.997 40.277 124.744 40.5147 124.545 40.7949C124.346 41.0751 124.205 41.3922 124.131 41.7276C124.056 42.063 124.05 42.4099 124.111 42.7479C124.173 43.086 124.301 43.4083 124.489 43.6961C124.676 43.9838 124.92 44.2311 125.204 44.4235C125.489 44.6158 125.809 44.7494 126.146 44.8162C126.483 44.8831 126.83 44.882 127.167 44.8129C127.309 44.7919 141.766 43.041 177.792 67.9173C176.944 68.7974 168.884 76.5801 156.197 68.6846C156.17 68.669 156.144 68.6539 156.112 68.6386C154.416 67.6651 114.517 44.8336 99.3488 45.7347C97.5098 45.6987 82.5788 45.9349 66.468 62.0564C49.7456 78.7844 33.0283 82.8083 26.5218 82.6008C19.1408 82.3636 5.59498 72.3583 5.26935 62.9318C5.24192 62.2362 4.94038 61.5796 4.43057 61.1055C3.92076 60.6315 3.24408 60.3783 2.54829 60.4014C1.85249 60.4245 1.19409 60.7219 0.716829 61.2288C0.239568 61.7356 -0.0177853 62.4107 0.00095636 63.1066C0.305897 71.7334 7.93508 79.8814 15.8118 84.3057C15.8168 84.3107 15.8278 84.316 15.8328 84.3207C15.8328 84.3221 15.8334 84.3234 15.8344 84.3245C15.8354 84.3255 15.8368 84.326 15.8382 84.326C19.5368 86.4015 23.2879 87.653 26.3543 87.7511C26.6018 87.7558 26.8597 87.7611 27.1183 87.7611C37.7078 87.7611 54.8889 81.009 70.241 65.6506C85.3212 50.5654 99.1496 50.8797 99.2764 50.8797C99.3781 50.885 99.48 50.885 99.5817 50.8797C101.858 50.7252 104.983 51.2864 108.612 52.3423C122.732 56.4316 144.47 67.923 153.405 73.0569C170.243 83.507 181.66 71.4137 181.776 71.2886C181.871 71.1874 181.955 71.0771 182.029 70.9593C186.542 74.3946 191.571 77.0941 196.928 78.9579C200.801 80.3051 204.867 81.0114 208.967 81.0487C216.717 81.0487 223.83 78.2619 229.936 72.7466C229.956 72.7309 229.975 72.7137 229.993 72.6952C250.783 53.9577 263.09 55.6733 268.343 56.4099C268.852 56.4823 269.371 56.4061 269.837 56.1905C270.304 55.9749 270.698 55.629 270.972 55.1945C271.24 54.7634 271.372 54.2616 271.35 53.7545C271.329 53.2473 271.155 52.7585 270.851 52.3516L270.852 52.353ZM157.672 33.2605C164.785 28.1773 178.419 19.5148 189.842 18.614L189.968 18.5983C190.184 19.4299 190.448 20.2485 190.758 21.0499C191.019 21.6918 191.52 22.2064 192.155 22.4836C192.79 22.7607 193.508 22.7785 194.156 22.5332C194.477 22.4173 194.771 22.2388 195.021 22.008C195.272 21.7772 195.474 21.4988 195.615 21.1891C195.757 20.8794 195.836 20.5445 195.847 20.204C195.858 19.8636 195.801 19.5244 195.679 19.2062C195.642 19.1135 192.497 10.8267 196.369 6.4124C199.041 10.2188 205.215 16.4971 216.932 16.6549C219.872 21.1923 223.291 26.1935 225.725 28.8769L223.65 32.5338C220.04 31.4329 216.185 31.4221 212.569 32.5028C205.905 34.4856 200.178 39.9452 195.553 48.7264C184.213 40.8549 171.28 35.5746 157.671 33.2598L157.672 33.2605ZM227.237 68.1842C225.383 67.9266 221.01 67.0045 215.225 63.7859C223.275 60.201 240.604 51.4869 244.233 49.6586C251.388 48.721 256.544 49.6842 260.092 51.0645C251.804 51.8625 241.178 55.8284 227.237 68.1839" fill="#1A1A1A"/>
<path d="M140.422 69.7175C122.324 71.0313 112.697 93.7644 111.903 95.7265C107.609 104.368 102.736 108.618 98.9847 110.704C100.465 104.688 99.7804 92.8582 99.4961 88.9177C99.4908 88.8406 99.4801 88.7679 99.4698 88.6908C96.7403 72.0402 104.528 65.1697 104.896 64.8554C105.157 64.641 105.373 64.3765 105.53 64.0776C105.688 63.7787 105.783 63.4513 105.812 63.1147C105.841 62.7782 105.803 62.4392 105.699 62.1178C105.595 61.7964 105.428 61.499 105.207 61.2432C105.11 61.1324 105.004 61.0291 104.891 60.9342C104.414 60.5395 103.815 60.3226 103.196 60.3208C102.578 60.319 101.977 60.5323 101.498 60.9242C101.287 61.0991 98.7111 63.2673 96.5668 67.8204C94.3912 72.4349 92.6473 79.4909 94.2491 89.3948C94.4016 91.5117 94.507 93.7414 94.565 95.934C87.7897 97.7423 81.3462 100.62 75.4772 104.458C62.6537 112.946 56.1102 124.756 56.5523 138.625C56.5749 139.181 56.7757 139.714 57.1249 140.146C57.4741 140.578 57.9532 140.886 58.4913 141.025C59.0332 141.172 59.6075 141.144 60.1325 140.945C60.6575 140.746 61.1063 140.387 61.415 139.918C61.5467 139.711 75.0502 119.178 92.8578 117.879C94.4436 117.838 107.267 116.937 116.688 97.8857C116.719 97.8237 116.747 97.7601 116.772 97.6952C116.856 97.479 125.618 75.956 140.812 74.8584C141.155 74.84 141.491 74.7534 141.8 74.6035C142.109 74.4536 142.384 74.2435 142.611 73.9855C142.838 73.7276 143.01 73.427 143.119 73.1013C143.228 72.7757 143.271 72.4316 143.245 72.0892C143.219 71.7469 143.125 71.4131 142.968 71.1076C142.811 70.8021 142.595 70.531 142.332 70.3101C142.07 70.0893 141.765 69.9232 141.437 69.8216C141.109 69.72 140.764 69.6849 140.423 69.7185L140.422 69.7175ZM93.5318 110.521C93.3338 110.843 93.2107 111.206 93.1715 111.582C93.1323 111.958 93.178 112.338 93.3052 112.694C92.9996 112.725 92.8151 112.73 92.7681 112.73C92.6994 112.73 92.626 112.73 92.5519 112.736C79.3964 113.657 68.7222 123.062 62.6 129.937C64.4971 121.583 69.7551 114.502 78.3004 108.806C82.0949 106.315 86.1574 104.259 90.4113 102.677C92.1552 102.023 93.6092 101.565 94.6054 101.275C94.5417 105.772 94.2051 109.418 93.5304 110.52" fill="#1A1A1A"/>
<path d="M62.9945 195.391C62.9945 197.271 62.6422 198.882 61.9376 200.223C61.2388 201.558 60.2842 202.581 59.074 203.291C57.8695 204.001 56.503 204.357 54.9746 204.357C53.4462 204.357 52.0768 204.001 50.8666 203.291C49.6621 202.575 48.7075 201.55 48.003 200.215C47.3041 198.874 46.9547 197.266 46.9547 195.391C46.9547 193.51 47.3041 191.902 48.003 190.567C48.7075 189.226 49.6621 188.2 50.8666 187.49C52.0768 186.78 53.4462 186.425 54.9746 186.425C56.503 186.425 57.8695 186.78 59.074 187.49C60.2842 188.2 61.2388 189.226 61.9376 190.567C62.6422 191.902 62.9945 193.51 62.9945 195.391ZM59.8155 195.391C59.8155 194.067 59.6081 192.95 59.1933 192.041C58.7842 191.126 58.216 190.436 57.4888 189.97C56.7615 189.499 55.9234 189.263 54.9746 189.263C54.0257 189.263 53.1876 189.499 52.4604 189.97C51.7331 190.436 51.1621 191.126 50.7473 192.041C50.3382 192.95 50.1337 194.067 50.1337 195.391C50.1337 196.715 50.3382 197.834 50.7473 198.749C51.1621 199.658 51.7331 200.348 52.4604 200.82C53.1876 201.286 54.0257 201.518 54.9746 201.518C55.9234 201.518 56.7615 201.286 57.4888 200.82C58.216 200.348 58.7842 199.658 59.1933 198.749C59.6081 197.834 59.8155 196.715 59.8155 195.391ZM73.4712 198.612V191.027H76.5564V204.118H73.5649V201.791H73.4286C73.1331 202.524 72.6473 203.124 71.9712 203.59C71.3007 204.055 70.474 204.288 69.4911 204.288C68.6331 204.288 67.8746 204.098 67.2155 203.717C66.5621 203.331 66.0507 202.771 65.6814 202.038C65.3121 201.3 65.1274 200.408 65.1274 199.362V191.027H68.2127V198.885C68.2127 199.715 68.4399 200.374 68.8945 200.862C69.349 201.351 69.9456 201.595 70.6843 201.595C71.1388 201.595 71.5791 201.484 72.0053 201.263C72.4314 201.041 72.7808 200.712 73.0536 200.274C73.332 199.831 73.4712 199.277 73.4712 198.612ZM85.5459 191.027V193.413H78.0204V191.027H85.5459ZM79.8783 187.891H82.9635V200.18C82.9635 200.595 83.026 200.913 83.151 201.135C83.2817 201.351 83.4522 201.499 83.6624 201.578C83.8726 201.658 84.1056 201.697 84.3613 201.697C84.5545 201.697 84.7306 201.683 84.8897 201.655C85.0545 201.626 85.1795 201.601 85.2647 201.578L85.7846 203.99C85.6198 204.047 85.384 204.109 85.0772 204.178C84.776 204.246 84.4067 204.286 83.9692 204.297C83.1965 204.32 82.5005 204.203 81.8812 203.947C81.2618 203.686 80.7704 203.283 80.4067 202.737C80.0488 202.192 79.8726 201.51 79.8783 200.692V187.891ZM90.7727 186.663V204.118H87.6874V186.663H90.7727ZM93.2252 204.118V191.027H96.3105V204.118H93.2252ZM94.7764 189.169C94.2877 189.169 93.8673 189.007 93.515 188.683C93.1627 188.354 92.9866 187.959 92.9866 187.499C92.9866 187.033 93.1627 186.638 93.515 186.314C93.8673 185.984 94.2877 185.82 94.7764 185.82C95.2707 185.82 95.6912 185.984 96.0377 186.314C96.39 186.638 96.5662 187.033 96.5662 187.499C96.5662 187.959 96.39 188.354 96.0377 188.683C95.6912 189.007 95.2707 189.169 94.7764 189.169ZM101.848 196.447V204.118H98.7631V191.027H101.712V193.251H101.865C102.166 192.518 102.647 191.936 103.306 191.504C103.97 191.072 104.791 190.857 105.769 190.857C106.672 190.857 107.459 191.05 108.13 191.436C108.806 191.822 109.328 192.382 109.698 193.115C110.073 193.848 110.257 194.737 110.252 195.783V204.118H107.166V196.26C107.166 195.385 106.939 194.7 106.485 194.206C106.036 193.712 105.414 193.465 104.618 193.465C104.078 193.465 103.598 193.584 103.178 193.822C102.763 194.055 102.436 194.393 102.198 194.837C101.965 195.28 101.848 195.817 101.848 196.447ZM118.464 204.374C117.151 204.374 116.017 204.101 115.063 203.555C114.114 203.004 113.384 202.226 112.873 201.22C112.361 200.209 112.106 199.018 112.106 197.649C112.106 196.303 112.361 195.121 112.873 194.104C113.39 193.081 114.111 192.286 115.037 191.717C115.964 191.143 117.052 190.857 118.302 190.857C119.108 190.857 119.87 190.987 120.586 191.249C121.307 191.504 121.944 191.902 122.495 192.442C123.052 192.982 123.489 193.669 123.807 194.504C124.125 195.334 124.285 196.322 124.285 197.47V198.416H113.554V196.337H121.327C121.321 195.746 121.194 195.22 120.944 194.76C120.694 194.294 120.344 193.928 119.895 193.661C119.452 193.393 118.935 193.26 118.344 193.26C117.714 193.26 117.16 193.413 116.682 193.72C116.205 194.021 115.833 194.419 115.566 194.913C115.304 195.402 115.171 195.939 115.165 196.524V198.34C115.165 199.101 115.304 199.754 115.583 200.3C115.861 200.84 116.25 201.254 116.75 201.544C117.25 201.828 117.836 201.97 118.506 201.97C118.955 201.97 119.361 201.908 119.725 201.783C120.089 201.652 120.404 201.462 120.671 201.212C120.938 200.962 121.14 200.652 121.276 200.283L124.157 200.607C123.975 201.368 123.628 202.033 123.117 202.601C122.611 203.163 121.964 203.601 121.174 203.913C120.384 204.22 119.481 204.374 118.464 204.374ZM131.033 204.348C130.004 204.348 129.084 204.084 128.271 203.555C127.459 203.027 126.817 202.26 126.345 201.254C125.873 200.249 125.638 199.027 125.638 197.59C125.638 196.135 125.876 194.908 126.354 193.908C126.837 192.902 127.487 192.143 128.305 191.632C129.123 191.115 130.035 190.857 131.041 190.857C131.808 190.857 132.439 190.987 132.933 191.249C133.427 191.504 133.82 191.814 134.109 192.178C134.399 192.536 134.623 192.874 134.783 193.192H134.91V186.663H138.004V204.118H134.97V202.055H134.783C134.623 202.374 134.393 202.712 134.092 203.07C133.791 203.422 133.393 203.723 132.899 203.973C132.405 204.223 131.783 204.348 131.033 204.348ZM131.893 201.817C132.547 201.817 133.104 201.641 133.564 201.288C134.024 200.93 134.373 200.433 134.612 199.797C134.851 199.161 134.97 198.419 134.97 197.572C134.97 196.726 134.851 195.99 134.612 195.365C134.379 194.74 134.033 194.254 133.572 193.908C133.118 193.561 132.558 193.388 131.893 193.388C131.206 193.388 130.632 193.567 130.172 193.925C129.712 194.283 129.365 194.777 129.132 195.408C128.899 196.038 128.783 196.76 128.783 197.572C128.783 198.391 128.899 199.121 129.132 199.763C129.371 200.399 129.72 200.902 130.18 201.271C130.646 201.635 131.217 201.817 131.893 201.817ZM156.152 194.487L153.339 194.794C153.259 194.51 153.12 194.243 152.921 193.993C152.728 193.743 152.467 193.541 152.137 193.388C151.808 193.234 151.404 193.158 150.927 193.158C150.285 193.158 149.745 193.297 149.308 193.575C148.876 193.854 148.663 194.215 148.669 194.658C148.663 195.038 148.802 195.348 149.086 195.587C149.376 195.825 149.853 196.021 150.518 196.175L152.751 196.652C153.99 196.919 154.91 197.342 155.512 197.922C156.12 198.501 156.427 199.26 156.433 200.197C156.427 201.021 156.186 201.749 155.708 202.379C155.237 203.004 154.58 203.493 153.74 203.845C152.899 204.197 151.933 204.374 150.842 204.374C149.24 204.374 147.95 204.038 146.973 203.368C145.995 202.692 145.413 201.751 145.225 200.547L148.234 200.257C148.37 200.848 148.66 201.294 149.103 201.595C149.546 201.896 150.123 202.047 150.833 202.047C151.566 202.047 152.154 201.896 152.598 201.595C153.046 201.294 153.271 200.922 153.271 200.479C153.271 200.104 153.126 199.794 152.836 199.55C152.552 199.305 152.109 199.118 151.507 198.987L149.274 198.518C148.018 198.257 147.089 197.817 146.487 197.197C145.884 196.572 145.586 195.783 145.592 194.828C145.586 194.021 145.805 193.322 146.248 192.732C146.697 192.135 147.319 191.675 148.115 191.351C148.916 191.021 149.839 190.857 150.884 190.857C152.419 190.857 153.626 191.183 154.507 191.837C155.393 192.49 155.941 193.374 156.152 194.487ZM160.174 209.027C159.754 209.027 159.365 208.993 159.007 208.925C158.655 208.862 158.373 208.788 158.163 208.703L158.879 206.3C159.328 206.43 159.728 206.493 160.081 206.487C160.433 206.482 160.743 206.371 161.01 206.155C161.282 205.945 161.512 205.592 161.7 205.098L161.964 204.391L157.217 191.027H160.49L163.507 200.913H163.643L166.669 191.027H169.95L164.709 205.703C164.464 206.396 164.14 206.99 163.737 207.484C163.334 207.984 162.839 208.365 162.254 208.626C161.674 208.893 160.981 209.027 160.174 209.027ZM171.365 204.118V191.027H174.314V193.251H174.467C174.74 192.501 175.192 191.916 175.822 191.496C176.453 191.07 177.206 190.857 178.081 190.857C178.967 190.857 179.714 191.072 180.322 191.504C180.936 191.93 181.368 192.513 181.618 193.251H181.754C182.044 192.524 182.533 191.945 183.22 191.513C183.913 191.075 184.734 190.857 185.683 190.857C186.888 190.857 187.871 191.237 188.632 191.999C189.393 192.76 189.774 193.871 189.774 195.331V204.118H186.68V195.808C186.68 194.996 186.464 194.402 186.033 194.027C185.601 193.646 185.072 193.456 184.447 193.456C183.703 193.456 183.121 193.689 182.7 194.155C182.285 194.615 182.078 195.215 182.078 195.953V204.118H179.052V195.68C179.052 195.004 178.848 194.465 178.439 194.061C178.035 193.658 177.507 193.456 176.854 193.456C176.41 193.456 176.007 193.57 175.643 193.797C175.28 194.018 174.99 194.334 174.774 194.743C174.558 195.146 174.45 195.618 174.45 196.158V204.118H171.365ZM192.32 204.118V186.663H195.406V193.192H195.533C195.693 192.874 195.917 192.536 196.207 192.178C196.496 191.814 196.889 191.504 197.383 191.249C197.877 190.987 198.508 190.857 199.275 190.857C200.286 190.857 201.198 191.115 202.011 191.632C202.829 192.143 203.477 192.902 203.954 193.908C204.437 194.908 204.678 196.135 204.678 197.59C204.678 199.027 204.443 200.249 203.971 201.254C203.499 202.26 202.857 203.027 202.045 203.555C201.232 204.084 200.312 204.348 199.283 204.348C198.533 204.348 197.911 204.223 197.417 203.973C196.923 203.723 196.525 203.422 196.224 203.07C195.928 202.712 195.698 202.374 195.533 202.055H195.354V204.118H192.32ZM195.346 197.572C195.346 198.419 195.465 199.161 195.704 199.797C195.948 200.433 196.298 200.93 196.752 201.288C197.212 201.641 197.769 201.817 198.423 201.817C199.104 201.817 199.675 201.635 200.136 201.271C200.596 200.902 200.943 200.399 201.175 199.763C201.414 199.121 201.533 198.391 201.533 197.572C201.533 196.76 201.417 196.038 201.184 195.408C200.951 194.777 200.604 194.283 200.144 193.925C199.684 193.567 199.11 193.388 198.423 193.388C197.764 193.388 197.204 193.561 196.744 193.908C196.283 194.254 195.934 194.74 195.695 195.365C195.462 195.99 195.346 196.726 195.346 197.572ZM212.291 204.374C211.013 204.374 209.905 204.092 208.968 203.53C208.03 202.967 207.303 202.18 206.786 201.169C206.274 200.158 206.019 198.976 206.019 197.624C206.019 196.271 206.274 195.087 206.786 194.07C207.303 193.053 208.03 192.263 208.968 191.7C209.905 191.138 211.013 190.857 212.291 190.857C213.57 190.857 214.678 191.138 215.615 191.7C216.553 192.263 217.277 193.053 217.789 194.07C218.306 195.087 218.564 196.271 218.564 197.624C218.564 198.976 218.306 200.158 217.789 201.169C217.277 202.18 216.553 202.967 215.615 203.53C214.678 204.092 213.57 204.374 212.291 204.374ZM212.308 201.902C213.002 201.902 213.581 201.712 214.047 201.331C214.513 200.945 214.86 200.428 215.087 199.78C215.32 199.132 215.436 198.411 215.436 197.615C215.436 196.814 215.32 196.09 215.087 195.442C214.86 194.788 214.513 194.268 214.047 193.882C213.581 193.496 213.002 193.303 212.308 193.303C211.598 193.303 211.007 193.496 210.536 193.882C210.07 194.268 209.72 194.788 209.487 195.442C209.26 196.09 209.147 196.814 209.147 197.615C209.147 198.411 209.26 199.132 209.487 199.78C209.72 200.428 210.07 200.945 210.536 201.331C211.007 201.712 211.598 201.902 212.308 201.902ZM223.548 186.663V204.118H220.463V186.663H223.548Z" fill="#1A1A1A"/>
<path d="M59.7946 420.704C59.7946 420.704 75.8757 398.981 95.2881 399.407C119.738 390.273 112.477 369.992 128.481 361.446C128.481 361.446 140.025 354.006 153.82 355.587C158.561 358.259 170.565 364.198 180.789 351.884C180.789 351.884 203.671 373.163 223.718 358.467C243.766 343.772 252.508 336.821 262.734 337.979L267.623 337.855C267.623 337.855 257.97 327.073 241.1 332.765C224.229 338.456 217.687 348.843 208.055 348.553L195.163 336.531C195.163 336.531 205.894 314.947 223.719 320.307L227.911 313.643C227.911 313.643 218.346 301.33 218.238 300.316C218.131 299.303 202.128 300.099 196.052 288.003C196.052 288.003 190.107 292.831 190.847 300.244C190.847 300.244 163.154 305.315 151.003 320.089C112.182 333.783 93.658 333.783 93.658 333.783C93.658 333.783 82.7015 333.606 54.2769 359.547C25.8524 385.488 5.38037 358.364 5.38037 358.364C5.38037 358.364 14.7985 379.75 42.3209 373.853C70.6887 363.657 77.9582 351.748 90.8227 350.259C102.328 352.089 96.0675 361.836 96.0675 361.836L95.7291 382.511C95.7291 382.511 59.8613 390.771 59.7946 420.704Z" fill="#B3B3B3"/>
<path d="M270.51 337.403C270.194 336.976 262.517 326.92 242.748 329.677C242.458 329.718 242.177 329.806 241.917 329.94C230.846 335.526 212.357 344.656 209.855 345.351C209.775 345.371 209.702 345.397 209.628 345.422C207.635 343.987 205.726 342.44 203.909 340.788C202.512 339.418 201.042 338.125 199.505 336.915C199.626 336.769 199.732 336.61 199.82 336.442C203.772 328.829 208.455 324.148 213.733 322.533C216.868 321.533 220.262 321.728 223.262 323.078C223.875 323.412 224.594 323.495 225.267 323.31C225.934 323.126 226.501 322.686 226.845 322.086L231.013 314.74C231.183 314.442 231.29 314.113 231.328 313.773C231.366 313.432 231.334 313.087 231.234 312.76C231.043 312.127 230.615 311.592 230.04 311.268C228.724 310.255 223.999 303.522 220.337 297.807C220.087 297.424 219.743 297.111 219.337 296.899C218.932 296.688 218.479 296.584 218.022 296.598C217.727 296.608 217.437 296.613 217.154 296.614C203.894 296.614 199.49 287.087 199.316 286.686C199.171 286.355 198.958 286.058 198.692 285.813C198.426 285.569 198.111 285.383 197.769 285.266C197.424 285.147 197.058 285.099 196.693 285.125C196.329 285.152 195.973 285.252 195.649 285.42C190.171 288.286 188.75 293.697 188.955 298.604C171.144 300.132 150.112 317.332 149.228 318.068C148.834 318.387 148.545 318.817 148.399 319.302C148.252 319.787 148.255 320.305 148.407 320.789C148.564 321.275 148.86 321.705 149.258 322.025C149.657 322.345 150.14 322.542 150.648 322.591C181.557 325.78 199.984 344.22 200.168 344.4C200.2 344.441 200.237 344.477 200.279 344.508C208.913 352.352 216.643 355.785 221.698 357.286C214.942 361.411 207.17 362.049 198.541 359.163C193.399 357.394 188.596 354.76 184.339 351.376C184.281 351.329 184.218 351.278 184.155 351.237C143.191 322.113 126.764 324.685 126.085 324.808C125.747 324.863 125.423 324.984 125.132 325.165C124.841 325.346 124.589 325.584 124.391 325.863C124.193 326.143 124.053 326.459 123.979 326.794C123.905 327.128 123.899 327.474 123.96 327.812C124.021 328.149 124.149 328.47 124.336 328.757C124.523 329.044 124.766 329.291 125.049 329.483C125.333 329.675 125.652 329.809 125.988 329.876C126.324 329.943 126.67 329.943 127.006 329.875C127.148 329.854 141.586 328.107 177.567 352.95C176.72 353.829 168.669 361.602 155.999 353.717C155.972 353.702 155.946 353.687 155.914 353.671C154.221 352.699 114.372 329.897 99.2232 330.796C97.3882 330.761 82.4748 330.997 66.3837 347.098C49.6827 363.804 32.9871 367.822 26.4882 367.616C19.115 367.379 5.58814 357.385 5.26185 347.972C5.22296 347.285 4.91705 346.641 4.40949 346.177C3.90194 345.713 3.23303 345.466 2.54576 345.489C1.8585 345.512 1.20742 345.803 0.731716 346.299C0.256013 346.796 -0.00656236 347.459 0.00012466 348.146C0.304731 356.762 7.92424 364.9 15.791 369.318C15.796 369.323 15.807 369.329 15.8117 369.333C15.8117 369.335 15.8122 369.336 15.8132 369.337C15.8142 369.338 15.8156 369.339 15.817 369.339C19.5106 371.411 23.257 372.661 26.3198 372.759C26.567 372.764 26.8245 372.769 27.0828 372.769C37.6589 372.769 54.8183 366.026 70.1508 350.687C85.2106 335.621 99.023 335.935 99.1495 335.935C99.2509 335.94 99.3526 335.94 99.4541 335.935C101.727 335.78 104.848 336.341 108.473 337.396C122.575 341.48 144.285 352.955 153.21 358.084C170.025 368.521 181.429 356.443 181.545 356.319C181.639 356.218 181.724 356.108 181.797 355.99C186.305 359.421 191.327 362.117 196.677 363.979C200.545 365.324 204.606 366.03 208.701 366.067C216.441 366.067 223.544 363.284 229.643 357.775C229.664 357.759 229.683 357.742 229.701 357.724C250.464 339.01 262.756 340.724 268.002 341.459C268.51 341.532 269.028 341.455 269.494 341.24C269.96 341.025 270.353 340.679 270.627 340.245C270.895 339.815 271.027 339.313 271.005 338.807C270.984 338.3 270.81 337.812 270.507 337.406L270.51 337.403ZM157.472 318.337C164.576 313.261 178.193 304.609 189.601 303.709L189.727 303.693C189.943 304.524 190.207 305.341 190.516 306.142C190.777 306.783 191.277 307.297 191.912 307.573C192.546 307.85 193.263 307.868 193.91 307.623C194.23 307.507 194.524 307.329 194.774 307.098C195.024 306.868 195.226 306.59 195.367 306.281C195.509 305.971 195.588 305.637 195.598 305.297C195.609 304.957 195.552 304.618 195.431 304.3C195.394 304.207 192.253 295.931 196.121 291.522C198.79 295.324 204.955 301.594 216.657 301.753C219.593 306.285 223.009 311.28 225.439 313.96L223.367 317.612C219.761 316.512 215.912 316.502 212.3 317.581C205.644 319.561 199.924 325.014 195.305 333.784C183.979 325.922 171.063 320.649 157.471 318.337L157.472 318.337ZM226.952 353.215C225.1 352.958 220.732 352.037 214.955 348.823C222.995 345.242 240.301 336.539 243.926 334.714C251.073 333.777 256.223 334.739 259.765 336.118C251.488 336.915 240.875 340.876 226.952 353.215Z" fill="#1A1A1A"/>
<path d="M140.247 354.748C122.172 356.06 112.559 378.765 111.764 380.724C107.476 389.356 102.609 393.599 98.8623 395.683C100.341 389.674 99.657 377.859 99.3731 373.925C99.3677 373.847 99.3571 373.775 99.3467 373.698C96.6206 357.068 104.398 350.207 104.766 349.893C105.027 349.678 105.243 349.414 105.401 349.115C105.558 348.816 105.654 348.489 105.683 348.153C105.712 347.816 105.673 347.477 105.569 347.156C105.465 346.834 105.297 346.537 105.077 346.282C104.979 346.171 104.874 346.068 104.761 345.973C104.285 345.579 103.687 345.362 103.069 345.36C102.45 345.359 101.851 345.572 101.373 345.963C101.162 346.138 98.589 348.303 96.4471 352.851C94.2742 357.459 92.5323 364.506 94.132 374.398C94.2845 376.511 94.3896 378.739 94.4477 380.93C87.6809 382.736 81.2454 385.61 75.3839 389.443C62.5767 397.92 56.0412 409.715 56.4829 423.567C56.5055 424.122 56.706 424.654 57.0548 425.086C57.4037 425.517 57.8822 425.825 58.4196 425.964C58.9608 426.111 59.5344 426.083 60.0587 425.884C60.5831 425.686 61.0313 425.327 61.3396 424.858C61.4711 424.652 74.9575 404.144 92.7425 402.848C94.3262 402.806 107.133 401.907 116.542 382.88C116.573 382.818 116.601 382.754 116.626 382.689C116.71 382.474 125.461 360.978 140.636 359.882C140.978 359.862 141.312 359.775 141.62 359.625C141.928 359.475 142.202 359.265 142.428 359.008C142.653 358.75 142.825 358.45 142.934 358.126C143.042 357.801 143.084 357.458 143.059 357.116C143.033 356.775 142.939 356.442 142.783 356.138C142.627 355.833 142.412 355.563 142.15 355.342C141.888 355.121 141.585 354.955 141.258 354.853C140.932 354.751 140.588 354.716 140.247 354.748ZM93.4161 395.498C93.2184 395.819 93.0954 396.182 93.0563 396.557C93.0171 396.933 93.0628 397.313 93.1899 397.668C92.8846 397.699 92.7004 397.705 92.6534 397.705C92.585 397.705 92.5116 397.705 92.4375 397.71C79.2987 398.63 68.6382 408.023 62.5237 414.89C64.4184 406.546 69.6697 399.474 78.2044 393.785C81.9945 391.298 86.0523 389.244 90.3013 387.664C92.0428 387.011 93.4951 386.553 94.49 386.265C94.4263 390.755 94.0897 394.397 93.4164 395.498" fill="#1A1A1A"/>
<path d="M75.2255 489.056V471.602H86.4073V474.252H78.3874V478.991H85.6403V481.642H78.3874V489.056H75.2255ZM95.9551 483.551V475.965H99.0403V489.056H96.0488V486.73H95.9125C95.617 487.463 95.1312 488.062 94.4551 488.528C93.7846 488.994 92.9579 489.227 91.975 489.227C91.117 489.227 90.3585 489.037 89.6994 488.656C89.046 488.269 88.5346 487.71 88.1653 486.977C87.796 486.238 87.6113 485.346 87.6113 484.301V475.965H90.6965V483.823C90.6965 484.653 90.9238 485.312 91.3784 485.801C91.8329 486.289 92.4295 486.534 93.1681 486.534C93.6227 486.534 94.063 486.423 94.4892 486.201C94.9153 485.98 95.2647 485.65 95.5375 485.213C95.8159 484.769 95.9551 484.215 95.9551 483.551ZM104.578 471.602V489.056H101.493V471.602H104.578ZM110.116 471.602V489.056H107.031V471.602H110.116ZM128.148 479.426L125.336 479.733C125.256 479.448 125.117 479.181 124.918 478.931C124.725 478.681 124.464 478.48 124.134 478.326C123.804 478.173 123.401 478.096 122.924 478.096C122.282 478.096 121.742 478.235 121.304 478.514C120.873 478.792 120.66 479.153 120.665 479.596C120.66 479.977 120.799 480.287 121.083 480.525C121.373 480.764 121.85 480.96 122.515 481.113L124.748 481.59C125.986 481.858 126.907 482.281 127.509 482.86C128.117 483.44 128.424 484.198 128.429 485.136C128.424 485.96 128.182 486.687 127.705 487.318C127.233 487.943 126.577 488.431 125.736 488.784C124.895 489.136 123.929 489.312 122.839 489.312C121.236 489.312 119.947 488.977 118.969 488.306C117.992 487.63 117.41 486.69 117.222 485.485L120.231 485.196C120.367 485.787 120.657 486.233 121.1 486.534C121.543 486.835 122.12 486.985 122.83 486.985C123.563 486.985 124.151 486.835 124.594 486.534C125.043 486.233 125.268 485.86 125.268 485.417C125.268 485.042 125.123 484.733 124.833 484.488C124.549 484.244 124.106 484.056 123.503 483.926L121.27 483.457C120.015 483.196 119.086 482.755 118.483 482.136C117.881 481.511 117.583 480.721 117.589 479.767C117.583 478.96 117.802 478.261 118.245 477.67C118.694 477.073 119.316 476.613 120.111 476.289C120.912 475.96 121.836 475.795 122.881 475.795C124.415 475.795 125.623 476.122 126.503 476.775C127.39 477.429 127.938 478.312 128.148 479.426ZM132.171 493.965C131.751 493.965 131.361 493.931 131.004 493.863C130.651 493.801 130.37 493.727 130.16 493.642L130.876 491.238C131.325 491.369 131.725 491.431 132.077 491.426C132.43 491.42 132.739 491.309 133.006 491.093C133.279 490.883 133.509 490.531 133.697 490.037L133.961 489.329L129.214 475.965H132.486L135.504 485.852H135.64L138.665 475.965H141.947L136.705 490.642C136.461 491.335 136.137 491.929 135.734 492.423C135.33 492.923 134.836 493.304 134.251 493.565C133.671 493.832 132.978 493.965 132.171 493.965ZM143.362 489.056V475.965H146.31V478.19H146.464C146.737 477.44 147.188 476.855 147.819 476.434C148.45 476.008 149.203 475.795 150.078 475.795C150.964 475.795 151.711 476.011 152.319 476.443C152.933 476.869 153.364 477.451 153.614 478.19H153.751C154.041 477.463 154.529 476.883 155.217 476.451C155.91 476.014 156.731 475.795 157.68 475.795C158.884 475.795 159.867 476.176 160.629 476.937C161.39 477.698 161.771 478.809 161.771 480.269V489.056H158.677V480.747C158.677 479.934 158.461 479.34 158.029 478.965C157.597 478.585 157.069 478.394 156.444 478.394C155.7 478.394 155.117 478.627 154.697 479.093C154.282 479.554 154.075 480.153 154.075 480.892V489.056H151.049V480.619C151.049 479.943 150.845 479.403 150.435 479C150.032 478.596 149.504 478.394 148.85 478.394C148.407 478.394 148.004 478.508 147.64 478.735C147.276 478.957 146.987 479.272 146.771 479.681C146.555 480.085 146.447 480.556 146.447 481.096V489.056H143.362ZM164.317 489.056V471.602H167.402V478.13H167.53C167.689 477.812 167.914 477.474 168.203 477.116C168.493 476.752 168.885 476.443 169.38 476.187C169.874 475.926 170.505 475.795 171.272 475.795C172.283 475.795 173.195 476.054 174.007 476.571C174.826 477.082 175.473 477.84 175.951 478.846C176.434 479.846 176.675 481.073 176.675 482.528C176.675 483.965 176.439 485.187 175.968 486.193C175.496 487.198 174.854 487.965 174.041 488.494C173.229 489.022 172.309 489.287 171.28 489.287C170.53 489.287 169.908 489.162 169.414 488.912C168.919 488.662 168.522 488.36 168.22 488.008C167.925 487.65 167.695 487.312 167.53 486.994H167.351V489.056H164.317ZM167.343 482.511C167.343 483.358 167.462 484.099 167.701 484.735C167.945 485.372 168.294 485.869 168.749 486.227C169.209 486.579 169.766 486.755 170.419 486.755C171.101 486.755 171.672 486.573 172.132 486.21C172.593 485.84 172.939 485.338 173.172 484.701C173.411 484.059 173.53 483.329 173.53 482.511C173.53 481.698 173.414 480.977 173.181 480.346C172.948 479.715 172.601 479.221 172.141 478.863C171.681 478.505 171.107 478.326 170.419 478.326C169.76 478.326 169.201 478.5 168.74 478.846C168.28 479.193 167.931 479.679 167.692 480.304C167.459 480.929 167.343 481.664 167.343 482.511ZM184.288 489.312C183.01 489.312 181.902 489.031 180.964 488.468C180.027 487.906 179.299 487.119 178.782 486.108C178.271 485.096 178.015 483.914 178.015 482.562C178.015 481.21 178.271 480.025 178.782 479.008C179.299 477.991 180.027 477.201 180.964 476.639C181.902 476.076 183.01 475.795 184.288 475.795C185.567 475.795 186.674 476.076 187.612 476.639C188.549 477.201 189.274 477.991 189.785 479.008C190.302 480.025 190.561 481.21 190.561 482.562C190.561 483.914 190.302 485.096 189.785 486.108C189.274 487.119 188.549 487.906 187.612 488.468C186.674 489.031 185.567 489.312 184.288 489.312ZM184.305 486.84C184.998 486.84 185.578 486.65 186.044 486.269C186.51 485.883 186.856 485.366 187.084 484.718C187.317 484.071 187.433 483.349 187.433 482.554C187.433 481.752 187.317 481.028 187.084 480.38C186.856 479.727 186.51 479.207 186.044 478.821C185.578 478.434 184.998 478.241 184.305 478.241C183.595 478.241 183.004 478.434 182.532 478.821C182.067 479.207 181.717 479.727 181.484 480.38C181.257 481.028 181.143 481.752 181.143 482.554C181.143 483.349 181.257 484.071 181.484 484.718C181.717 485.366 182.067 485.883 182.532 486.269C183.004 486.65 183.595 486.84 184.305 486.84ZM195.545 471.602V489.056H192.459V471.602H195.545Z" fill="#1A1A1A"/>
</svg>
