<svg width="28" height="31" viewBox="0 0 28 31" fill="none" xmlns="http://www.w3.org/2000/svg">
<g clip-path="url(#clip0_1208_16646)">
<path d="M11.8576 27.96C16.6924 27.96 20.6299 25.5494 22.4112 21.3707C22.6121 20.902 22.5852 20.4868 22.3442 20.2457C22.1566 20.0449 21.7817 20.018 21.3798 20.1654C20.2683 20.6073 19.0093 20.8217 17.5496 20.8217C11.4826 20.8217 7.57185 17.018 7.57185 11.0716C7.57185 9.55824 7.85309 7.85735 8.30845 6.93325C8.53613 6.46449 8.53613 6.04932 8.32185 5.80824C8.09417 5.54039 7.67899 5.50021 7.15667 5.7011C3.04506 7.33503 0.286133 11.6475 0.286133 16.5494C0.286133 23.0583 5.09417 27.96 11.8576 27.96ZM21.929 15.719C22.1835 15.719 22.3576 15.5449 22.3843 15.277C22.8264 11.7011 23.0004 11.6073 26.6299 11.0181C26.9112 10.9779 27.0852 10.8306 27.0852 10.5761C27.0852 10.3216 26.9112 10.1609 26.6835 10.1207C23.0272 9.42431 22.8264 9.43771 22.3843 5.86182C22.3576 5.59396 22.1835 5.41985 21.929 5.41985C21.688 5.41985 21.5138 5.59396 21.4737 5.84843C21.0182 9.47789 20.8843 9.59843 17.1745 10.1207C16.9468 10.1475 16.7728 10.3216 16.7728 10.5761C16.7728 10.8172 16.9468 10.9779 17.1745 11.0181C20.8843 11.7279 21.0049 11.7279 21.4737 15.3038C21.5138 15.5449 21.688 15.719 21.929 15.719ZM15.5272 6.65199C15.688 6.65199 15.7683 6.55824 15.795 6.41093C16.2102 4.17431 16.1969 4.12075 18.5272 3.67878C18.6745 3.65199 18.7817 3.55824 18.7817 3.39753C18.7817 3.23681 18.6745 3.14307 18.5272 3.11628C16.1969 2.64753 16.2772 2.59396 15.795 0.384138C15.7683 0.236816 15.688 0.143066 15.5272 0.143066C15.3665 0.143066 15.2728 0.236816 15.2459 0.384138C14.7772 2.59396 14.8576 2.64753 12.5272 3.11628C12.3665 3.14307 12.2728 3.23681 12.2728 3.39753C12.2728 3.55824 12.3665 3.65199 12.5272 3.67878C14.8576 4.14753 14.8308 4.17431 15.2459 6.41093C15.2728 6.55824 15.3665 6.65199 15.5272 6.65199Z" fill="black"/>
</g>
<defs>
<clipPath id="clip0_1208_16646">
<rect width="26.7991" height="29.9866" fill="white" transform="translate(0.286133 0.143066)"/>
</clipPath>
</defs>
</svg>
