<svg width="105" height="76" viewBox="0 0 105 76" fill="none" xmlns="http://www.w3.org/2000/svg">
<path d="M103.582 31.4737C103.749 31.3757 103.895 31.248 104.015 31.0969L104.11 31.0499C104.215 30.8962 104.296 30.7269 104.348 30.5483L104.319 30.489L104.367 30.2586C104.45 29.2342 104.532 28.2097 104.615 27.1852L104.703 25.5479L104.684 24.3773L104.642 22.9227C104.589 21.0713 104.442 19.2238 104.201 17.3874C104.134 16.9546 103.899 16.5656 103.547 16.3061C103.194 16.0465 102.753 15.9376 102.32 16.0031C101.888 16.068 101.5 16.3009 101.239 16.6511C100.979 17.0013 100.867 17.4403 100.929 17.8723C101.163 19.5569 101.309 21.2525 101.366 22.9523L101.42 24.401L101.432 24.5725L101.22 24.146L100.55 23.2095C99.565 21.7313 98.4671 20.3319 97.2657 19.0238L95.9881 17.547C87.2447 8.26364 75.587 2.25268 62.9535 0.513609C50.2963 -1.11788 37.4624 1.64277 26.5956 8.33447C15.7714 15.0826 7.60069 25.3518 3.45735 37.4155C-0.611697 49.505 -0.416889 62.6235 4.00933 74.5869L4.08563 74.7408C4.26762 75.1058 4.57811 75.3905 4.95738 75.5403C5.33664 75.6901 5.75789 75.6944 6.14011 75.5523C6.55056 75.3987 6.88394 75.0895 7.06797 74.6917C7.25201 74.294 7.27186 73.8398 7.12326 73.4275C2.95184 62.18 2.76463 49.8421 6.59287 38.4733C10.4932 27.1334 18.1768 17.4811 28.3532 11.1372C38.5642 4.84431 50.6261 2.24765 62.522 3.78145C74.3739 5.41492 85.3135 11.0438 93.5326 19.7375L94.7866 21.1964C95.8861 22.3912 96.8934 23.6676 97.7999 25.0146L98.5645 26.1111L98.6643 26.3125L98.44 26.2171L97.0701 25.7451C95.5753 25.1997 94.0513 24.7382 92.505 24.363C92.0767 24.2711 91.6295 24.3516 91.2602 24.5871C90.8909 24.8226 90.6292 25.194 90.5317 25.6211C90.4478 25.992 90.4945 26.3806 90.6638 26.7212C90.7703 26.9513 90.9292 27.1534 91.1278 27.3112C91.3264 27.4689 91.5591 27.5781 91.8074 27.6298C93.2327 27.9745 94.6367 28.402 96.0122 28.9102L97.3467 29.3702C97.6537 29.4836 97.9726 29.5912 98.1969 29.6866L99.4954 30.2825C100.345 30.6876 101.225 31.1223 102.11 31.5689L102.346 31.6585L102.417 31.6232C102.595 31.6688 102.778 31.6874 102.961 31.6784C102.961 31.6784 103.032 31.6432 103.067 31.6256C103.247 31.6089 103.422 31.5574 103.582 31.4737Z" fill="#3A86FF"/>
</svg>
