<svg width="76" height="48" viewBox="0 0 76 48" fill="none" xmlns="http://www.w3.org/2000/svg">
<path d="M30.7856 22.1672C30.7856 22.1672 37.8844 21.6273 37.8844 13.1256C37.8844 4.63095 33.0698 0.443468 25.7107 0.443468L0.500305 0.403564V47.3484H26.297C26.297 47.3484 39.1954 47.7568 39.1954 33.2649C39.1954 33.2649 40.1428 22.1672 30.7856 22.1672ZM9.88093 7.44529H22.7793C22.7793 7.44529 27.1929 7.51805 27.1929 13.2453C27.1929 19.1815 22.7793 19.1815 22.7793 19.1815H9.88093V7.44529ZM23.9519 40.3067H9.88093V26.2232H23.9519C23.9519 26.2232 30.9873 26.296 30.9873 33.2649C30.9873 40.2339 24.965 40.3067 23.9519 40.3067Z" fill="white"/>
<path d="M59.1298 12.1406C41.5107 12.1406 41.5411 29.7449 41.5411 29.7449C41.5411 29.7449 40.3686 47.3492 59.1298 47.3492C59.1298 47.3492 75.5459 47.3492 75.5459 33.2658H66.1653C66.1653 33.2658 66.1653 40.3075 59.1298 40.3075C59.1298 40.3075 52.0944 40.3075 52.0944 30.9186C52.0944 30.9186 70.8556 30.9186 75.5459 30.9186C75.5459 26.2241 75.5459 12.1406 59.1298 12.1406ZM52.0944 26.2241C52.0944 26.2241 51.9396 19.1823 59.1298 19.1823C66.3177 19.1823 66.1653 26.2241 66.1653 26.2241H52.0944Z" fill="white"/>
<path d="M68.5111 5.09814H49.7498V9.79263H68.5111V5.09814Z" fill="white"/>
</svg>
