<svg width="48" height="49" viewBox="0 0 48 49" fill="none" xmlns="http://www.w3.org/2000/svg">
<path d="M21.4287 24.357C21.4287 24.357 24.8106 24.1001 24.8106 20.0536C24.8106 16.0106 22.5169 14.0175 19.0111 14.0175L7.00098 13.9985V36.3421H19.2904C19.2904 36.3421 25.4351 36.5365 25.4351 29.639C25.4351 29.639 25.8865 24.357 21.4287 24.357ZM11.4699 17.3501H17.6146C17.6146 17.3501 19.7172 17.3847 19.7172 20.1106C19.7172 22.936 17.6146 22.936 17.6146 22.936H11.4699V17.3501ZM18.1732 32.9906H11.4699V26.2875H18.1732C18.1732 26.2875 21.5248 26.3221 21.5248 29.639C21.5248 32.956 18.6558 32.9906 18.1732 32.9906Z" fill="#667085"/>
<path d="M34.9319 19.585C26.5383 19.585 26.5528 27.9638 26.5528 27.9638C26.5528 27.9638 25.9942 36.3427 34.9319 36.3427C34.9319 36.3427 42.7525 36.3427 42.7525 29.6396H38.2836C38.2836 29.6396 38.2836 32.9911 34.9319 32.9911C34.9319 32.9911 31.5803 32.9911 31.5803 28.5224C31.5803 28.5224 40.518 28.5224 42.7525 28.5224C42.7525 26.288 42.7525 19.585 34.9319 19.585ZM31.5803 26.288C31.5803 26.288 31.5065 22.9365 34.9319 22.9365C38.3562 22.9365 38.2836 26.288 38.2836 26.288H31.5803Z" fill="#667085"/>
<path d="M39.3997 16.2329H30.4619V18.4673H39.3997V16.2329Z" fill="#667085"/>
</svg>
