<svg width="83" height="83" viewBox="0 0 83 83" fill="none" xmlns="http://www.w3.org/2000/svg">
<path d="M41.359 82.438C18.7803 82.438 0.403015 64.0607 0.403015 41.4821C0.403015 18.9035 18.7803 0.526123 41.359 0.526123C63.9376 0.526123 82.3149 18.9035 82.3149 41.4821C82.3149 64.0607 63.9376 82.438 41.359 82.438ZM41.359 7.13192C22.4135 7.13192 7.00881 22.5366 7.00881 41.4821C7.00881 60.4275 22.4135 75.8322 41.359 75.8322C60.3044 75.8322 75.7091 60.4275 75.7091 41.4821C75.7091 22.5366 60.3044 7.13192 41.359 7.13192Z" fill="white"/>
<path d="M29.4702 37.4515C21.7282 37.4515 13.3521 36.3021 4.42102 33.9769C2.65067 33.5144 1.59374 31.7177 2.05615 29.9473C2.51855 28.177 4.31533 27.12 6.08568 27.5824C33.143 34.611 54.3212 30.1587 67.3214 14.7276C68.4973 13.3403 70.5847 13.1554 71.9719 14.3312C73.3723 15.507 73.5441 17.5945 72.3683 18.9817C62.05 31.2288 47.4644 37.4515 29.4702 37.4515Z" fill="white"/>
<path d="M12.9583 69.5031C12.192 69.5031 11.4389 69.2389 10.818 68.7104C9.43077 67.5214 9.27223 65.434 10.4481 64.0467C29.7634 41.4681 54.7598 36.1042 79.0294 49.3554C80.6281 50.2274 81.2226 52.2356 80.3506 53.8342C79.4786 55.4328 77.4705 56.0273 75.8719 55.1553C46.7271 39.2618 25.5225 56.5954 15.4685 68.3537C14.8211 69.1068 13.8963 69.5031 12.9583 69.5031Z" fill="white"/>
<path d="M52.1807 80.8543C52.0618 80.8543 51.9429 80.8543 51.824 80.8411C50.014 80.6429 48.706 79.0179 48.9042 77.1947C51.4805 53.5724 45.4031 29.7519 30.8572 6.36734C29.8927 4.82158 30.3683 2.787 31.9141 1.82255C33.4598 0.858103 35.4944 1.33372 36.4589 2.87948C51.8107 27.5455 58.2052 52.7929 55.4704 77.9213C55.2722 79.6124 53.8453 80.8543 52.1807 80.8543Z" fill="white"/>
</svg>
