<svg width="48" height="49" viewBox="0 0 48 49" fill="none" xmlns="http://www.w3.org/2000/svg">
<g id="Social media icons">
<g id="Group">
<path id="Vector" d="M24 41.4985C14.9037 41.4985 7.5 34.0948 7.5 24.9985C7.5 15.9022 14.9037 8.49854 24 8.49854C33.0963 8.49854 40.5 15.9022 40.5 24.9985C40.5 34.0948 33.0963 41.4985 24 41.4985ZM24 11.1598C16.3674 11.1598 10.1613 17.366 10.1613 24.9985C10.1613 32.6311 16.3674 38.8372 24 38.8372C31.6326 38.8372 37.8387 32.6311 37.8387 24.9985C37.8387 17.366 31.6326 11.1598 24 11.1598Z" fill="#667085"/>
<path id="Vector_2" d="M19.2092 23.3749C16.0902 23.3749 12.7156 22.9118 9.11758 21.9751C8.40435 21.7888 7.97855 21.0649 8.16484 20.3517C8.35113 19.6385 9.075 19.2127 9.78822 19.3989C20.6889 22.2306 29.221 20.4368 34.4584 14.2201C34.9321 13.6612 35.7731 13.5867 36.3319 14.0604C36.8961 14.5341 36.9653 15.3751 36.4916 15.9339C32.3347 20.868 26.4586 23.3749 19.2092 23.3749Z" fill="#667085"/>
<path id="Vector_3" d="M12.5586 36.2875C12.2499 36.2875 11.9465 36.1811 11.6963 35.9682C11.1374 35.4891 11.0736 34.6482 11.5473 34.0893C19.3289 24.993 29.3992 22.832 39.1768 28.1706C39.8208 28.5219 40.0603 29.3309 39.7091 29.9749C39.3578 30.619 38.5487 30.8585 37.9047 30.5072C26.1631 24.1041 17.6203 31.0874 13.5699 35.8245C13.3091 36.1278 12.9365 36.2875 12.5586 36.2875Z" fill="#667085"/>
<path id="Vector_4" d="M28.3582 40.8605C28.3103 40.8605 28.2624 40.8605 28.2145 40.8552C27.4853 40.7754 26.9584 40.1207 27.0382 39.3862C28.0761 29.8694 25.6277 20.2728 19.7676 10.8518C19.379 10.2291 19.5706 9.40941 20.1934 9.02086C20.8161 8.63231 21.6358 8.82392 22.0243 9.44667C28.2092 19.3839 30.7853 29.5554 29.6835 39.6789C29.6037 40.3602 29.0289 40.8605 28.3582 40.8605Z" fill="#667085"/>
</g>
</g>
</svg>
