<svg width="96" height="97" viewBox="0 0 96 97" fill="none" xmlns="http://www.w3.org/2000/svg">
<rect x="12" y="12.9985" width="72" height="72" rx="36" fill="#DD2590"/>
<path d="M45.3327 42.3317L35.9993 42.3317M59.9993 42.3317L50.666 42.3317M50.666 42.6676C55.2666 43.8518 58.666 48.028 58.666 52.9983M37.3327 52.9983C37.3327 48.028 40.7321 43.8518 45.3327 42.6676M36.7993 58.3317H37.866C38.6128 58.3317 38.9861 58.3317 39.2713 58.1864C39.5222 58.0586 39.7262 57.8546 39.854 57.6037C39.9993 57.3185 39.9993 56.9451 39.9993 56.1984V55.1317C39.9993 54.385 39.9993 54.0116 39.854 53.7264C39.7262 53.4755 39.5222 53.2715 39.2713 53.1437C38.9861 52.9984 38.6128 52.9984 37.866 52.9984H36.7993C36.0526 52.9984 35.6792 52.9984 35.394 53.1437C35.1431 53.2715 34.9392 53.4755 34.8113 53.7264C34.666 54.0116 34.666 54.385 34.666 55.1317V56.1984C34.666 56.9451 34.666 57.3185 34.8113 57.6037C34.9392 57.8546 35.1431 58.0586 35.394 58.1864C35.6792 58.3317 36.0526 58.3317 36.7993 58.3317ZM47.466 44.9984H48.5327C49.2794 44.9984 49.6528 44.9984 49.938 44.853C50.1889 44.7252 50.3929 44.5212 50.5207 44.2704C50.666 43.9851 50.666 43.6118 50.666 42.865V41.7984C50.666 41.0516 50.666 40.6783 50.5207 40.3931C50.3929 40.1422 50.1889 39.9382 49.938 39.8104C49.6528 39.665 49.2794 39.665 48.5327 39.665H47.466C46.7193 39.665 46.3459 39.665 46.0607 39.8104C45.8098 39.9382 45.6058 40.1422 45.478 40.3931C45.3327 40.6783 45.3327 41.0516 45.3327 41.7984V42.865C45.3327 43.6118 45.3327 43.9851 45.478 44.2704C45.6058 44.5212 45.8098 44.7252 46.0607 44.853C46.3459 44.9984 46.7193 44.9984 47.466 44.9984ZM58.1327 58.3317H59.1993C59.9461 58.3317 60.3195 58.3317 60.6047 58.1864C60.8556 58.0586 61.0595 57.8546 61.1874 57.6037C61.3327 57.3185 61.3327 56.9451 61.3327 56.1984V55.1317C61.3327 54.385 61.3327 54.0116 61.1874 53.7264C61.0595 53.4755 60.8556 53.2715 60.6047 53.1437C60.3195 52.9984 59.9461 52.9984 59.1993 52.9984H58.1327C57.3859 52.9984 57.0126 52.9984 56.7274 53.1437C56.4765 53.2715 56.2725 53.4755 56.1447 53.7264C55.9993 54.0116 55.9993 54.385 55.9993 55.1317V56.1984C55.9993 56.9451 55.9993 57.3185 56.1447 57.6037C56.2725 57.8546 56.4765 58.0586 56.7274 58.1864C57.0126 58.3317 57.3859 58.3317 58.1327 58.3317ZM61.3327 42.3317C61.3327 43.0681 60.7357 43.665 59.9993 43.665C59.263 43.665 58.666 43.0681 58.666 42.3317C58.666 41.5953 59.263 40.9984 59.9993 40.9984C60.7357 40.9984 61.3327 41.5953 61.3327 42.3317ZM37.3327 42.3317C37.3327 43.0681 36.7357 43.665 35.9993 43.665C35.263 43.665 34.666 43.0681 34.666 42.3317C34.666 41.5953 35.263 40.9984 35.9993 40.9984C36.7357 40.9984 37.3327 41.5953 37.3327 42.3317Z" stroke="white" stroke-width="3" stroke-linecap="round" stroke-linejoin="round"/>
<rect x="6" y="6.99854" width="84" height="84" rx="42" stroke="#F670C7" stroke-opacity="0.2" stroke-width="12"/>
</svg>
