<svg width="48" height="49" viewBox="0 0 48 49" fill="none" xmlns="http://www.w3.org/2000/svg">
<path d="M18.5004 25.0054C18.5004 21.9667 20.9623 19.5027 24.0002 19.5027C27.038 19.5027 29.5013 21.9667 29.5013 25.0054C29.5013 28.0442 27.038 30.5082 24.0002 30.5082C20.9623 30.5082 18.5004 28.0442 18.5004 25.0054ZM15.5265 25.0054C15.5265 29.6868 19.3202 33.4815 24.0002 33.4815C28.6802 33.4815 32.4738 29.6868 32.4738 25.0054C32.4738 20.3241 28.6802 16.5293 24.0002 16.5293C19.3202 16.5293 15.5265 20.3241 15.5265 25.0054ZM30.829 16.1933C30.8289 16.585 30.9449 16.9681 31.1623 17.2939C31.3798 17.6197 31.689 17.8737 32.0508 18.0238C32.4125 18.1739 32.8107 18.2133 33.1948 18.137C33.579 18.0607 33.9319 17.8722 34.209 17.5953C34.486 17.3184 34.6748 16.9655 34.7513 16.5813C34.8279 16.1971 34.7889 15.7988 34.6391 15.4368C34.4894 15.0747 34.2357 14.7653 33.9101 14.5475C33.5846 14.3297 33.2017 14.2134 32.8101 14.2132H32.8093C32.2843 14.2135 31.7809 14.4221 31.4096 14.7934C31.0383 15.1646 30.8295 15.6681 30.829 16.1933V16.1933ZM17.3333 38.4417C15.7244 38.3684 14.8499 38.1003 14.2688 37.8738C13.4984 37.5738 12.9486 37.2165 12.3707 36.6391C11.7927 36.0618 11.4349 35.5124 11.1363 34.7417C10.9098 34.1607 10.6418 33.2857 10.5686 31.6763C10.4886 29.9364 10.4727 29.4137 10.4727 25.0056C10.4727 20.5974 10.49 20.0762 10.5686 18.3348C10.6419 16.7254 10.9119 15.8522 11.1363 15.2694C11.4362 14.4987 11.7935 13.9489 12.3707 13.3707C12.9478 12.7926 13.497 12.4347 14.2688 12.136C14.8497 11.9094 15.7244 11.6413 17.3333 11.5682C19.0728 11.4881 19.5953 11.4722 24.0002 11.4722C28.4051 11.4722 28.9281 11.4895 30.669 11.5682C32.2779 11.6415 33.151 11.9115 33.7335 12.136C34.504 12.4347 35.0537 12.7934 35.6317 13.3707C36.2097 13.9481 36.5661 14.4987 36.866 15.2694C37.0926 15.8504 37.3606 16.7254 37.4337 18.3348C37.5137 20.0762 37.5297 20.5974 37.5297 25.0056C37.5297 29.4137 37.5137 29.9349 37.4337 31.6763C37.3605 33.2857 37.0911 34.1604 36.866 34.7417C36.5661 35.5124 36.2089 36.0623 35.6317 36.6391C35.0545 37.2159 34.504 37.5738 33.7335 37.8738C33.1527 38.1004 32.2779 38.3685 30.669 38.4417C28.9296 38.5217 28.4071 38.5377 24.0002 38.5377C19.5933 38.5377 19.0723 38.5217 17.3333 38.4417V38.4417ZM17.1967 8.5985C15.4399 8.67853 14.2395 8.95716 13.1912 9.36521C12.1054 9.7866 11.1863 10.3519 10.2679 11.2692C9.34946 12.1864 8.78574 13.1073 8.36448 14.1933C7.95654 15.2426 7.67799 16.4427 7.59798 18.2C7.51666 19.96 7.49805 20.5227 7.49805 25.0054C7.49805 29.4882 7.51666 30.0509 7.59798 31.8109C7.67799 33.5683 7.95654 34.7683 8.36448 35.8176C8.78574 36.903 9.34959 37.8248 10.2679 38.7417C11.1862 39.6586 12.1054 40.2231 13.1912 40.6457C14.2415 41.0537 15.4399 41.3324 17.1967 41.4124C18.9571 41.4924 19.5187 41.5123 24.0002 41.5123C28.4816 41.5123 29.0442 41.4937 30.8037 41.4124C32.5606 41.3324 33.7602 41.0537 34.8092 40.6457C35.8943 40.2231 36.814 39.659 37.7325 38.7417C38.6509 37.8244 39.2134 36.903 39.6359 35.8176C40.0438 34.7683 40.3237 33.5682 40.4024 31.8109C40.4824 30.0496 40.501 29.4882 40.501 25.0054C40.501 20.5227 40.4824 19.96 40.4024 18.2C40.3224 16.4426 40.0438 15.2419 39.6359 14.1933C39.2134 13.1079 38.6495 12.1879 37.7325 11.2692C36.8155 10.3505 35.8943 9.7866 34.8105 9.36521C33.7602 8.95716 32.5604 8.67721 30.805 8.5985C29.0455 8.51848 28.483 8.49854 24.0015 8.49854C19.5201 8.49854 18.9571 8.51715 17.1967 8.5985Z" fill="#667085"/>
</svg>
