<svg width="76" height="76" viewBox="0 0 76 76" fill="none" xmlns="http://www.w3.org/2000/svg">
<path d="M25.5172 38.192C25.5172 31.2826 31.1153 25.6799 38.0227 25.6799C44.9302 25.6799 50.5312 31.2826 50.5312 38.192C50.5312 45.1015 44.9302 50.7041 38.0227 50.7041C31.1153 50.7041 25.5172 45.1015 25.5172 38.192ZM18.7554 38.192C18.7554 48.8365 27.3814 57.4649 38.0227 57.4649C48.6641 57.4649 57.2901 48.8365 57.2901 38.192C57.2901 27.5476 48.6641 18.9191 38.0227 18.9191C27.3814 18.9191 18.7554 27.5476 18.7554 38.192ZM53.5502 18.1549C53.5498 19.0457 53.8135 19.9166 54.308 20.6575C54.8025 21.3984 55.5055 21.976 56.3281 22.3172C57.1507 22.6584 58.056 22.748 58.9295 22.5745C59.803 22.4011 60.6055 21.9725 61.2355 21.3428C61.8654 20.7132 62.2946 19.9108 62.4687 19.0372C62.6428 18.1636 62.554 17.2579 62.2135 16.4348C61.873 15.6117 61.2962 14.908 60.5559 14.4128C59.8156 13.9176 58.9452 13.6531 58.0546 13.6527H58.0529C56.8591 13.6533 55.7145 14.1277 54.8702 14.9719C54.026 15.8161 53.5512 16.9609 53.5502 18.1549ZM22.8637 68.7433C19.2054 68.5766 17.217 67.9671 15.8956 67.4521C14.1437 66.7699 12.8938 65.9574 11.5796 64.6446C10.2654 63.3319 9.45191 62.0827 8.7729 60.3304C8.2578 59.0092 7.64843 57.0196 7.48213 53.3603C7.30022 49.404 7.2639 48.2155 7.2639 38.1923C7.2639 28.1691 7.30322 26.984 7.48213 23.0244C7.64873 19.365 8.2626 17.3793 8.7729 16.0543C9.45491 14.3019 10.2672 13.0516 11.5796 11.737C12.892 10.4225 14.1407 9.60874 15.8956 8.92954C17.2164 8.41428 19.2054 7.80474 22.8637 7.63839C26.8188 7.45643 28.0069 7.4201 38.0227 7.4201C48.0385 7.4201 49.2279 7.45943 53.1863 7.63839C56.8446 7.80504 58.8297 8.41908 60.1544 8.92954C61.9063 9.60874 63.1562 10.4243 64.4704 11.737C65.7846 13.0498 66.5951 14.3019 67.2771 16.0543C67.7922 17.3754 68.4016 19.365 68.5679 23.0244C68.7498 26.984 68.7861 28.1691 68.7861 38.1923C68.7861 48.2155 68.7498 49.4007 68.5679 53.3603C68.4013 57.0196 67.7889 59.0086 67.2771 60.3304C66.5951 62.0827 65.7828 63.3331 64.4704 64.6446C63.158 65.9562 61.9063 66.7699 60.1544 67.4521C58.8336 67.9674 56.8446 68.5769 53.1863 68.7433C49.2312 68.9252 48.043 68.9616 38.0227 68.9616C28.0024 68.9616 26.8176 68.9252 22.8637 68.7433ZM22.553 0.885993C18.5585 1.06795 15.8289 1.70152 13.4452 2.62934C10.9765 3.58749 8.88667 4.87293 6.79832 6.95859C4.70997 9.04424 3.4282 11.138 2.47033 13.6074C1.54277 15.9933 0.909389 18.7221 0.72748 22.7178C0.54257 26.7197 0.500244 27.9992 0.500244 38.192C0.500244 48.3849 0.54257 49.6643 0.72748 53.6663C0.909389 57.6622 1.54277 60.3907 2.47033 62.7767C3.4282 65.2446 4.71027 67.3407 6.79832 69.4255C8.88637 71.5102 10.9765 72.7939 13.4452 73.7547C15.8334 74.6825 18.5585 75.3161 22.553 75.4981C26.5559 75.68 27.8328 75.7254 38.0227 75.7254C48.2127 75.7254 49.4917 75.683 53.4925 75.4981C57.4873 75.3161 60.215 74.6825 62.6003 73.7547C65.0675 72.7939 67.1588 71.5111 69.2472 69.4255C71.3355 67.3398 72.6146 65.2446 73.5752 62.7767C74.5027 60.3907 75.1391 57.6619 75.318 53.6663C75.4999 49.6613 75.5422 48.3849 75.5422 38.192C75.5422 27.9992 75.4999 26.7197 75.318 22.7178C75.1361 18.7218 74.5027 15.9918 73.5752 13.6074C72.6146 11.1395 71.3322 9.04754 69.2472 6.95859C67.1621 4.86963 65.0675 3.58749 62.6033 2.62934C60.215 1.70152 57.487 1.06495 53.4955 0.885993C49.4947 0.704032 48.2157 0.658691 38.0257 0.658691C27.8358 0.658691 26.5559 0.701029 22.553 0.885993Z" fill="white"/>
</svg>
