<svg width="32" height="32" viewBox="0 0 32 32" fill="none" xmlns="http://www.w3.org/2000/svg">
<g clip-path="url(#clip0_1305_12841)">
<path d="M15.6203 22.5047C19.3435 22.5047 22.4372 19.411 22.4372 15.6743C22.4372 11.9243 19.3435 8.83056 15.6203 8.83056C11.897 8.83056 8.80329 11.9243 8.80329 15.6743C8.80329 19.411 11.897 22.5047 15.6203 22.5047ZM15.6337 6.35288C16.2631 6.35288 16.7854 5.83056 16.7854 5.18771V2.30824C16.7854 1.66539 16.2631 1.14307 15.6337 1.14307C14.9908 1.14307 14.4685 1.66539 14.4685 2.30824V5.18771C14.4685 5.83056 14.9908 6.35288 15.6337 6.35288ZM22.1962 9.09843C22.6515 9.54039 23.3881 9.55379 23.8435 9.09843L25.8925 7.04932C26.3346 6.60735 26.3346 5.85735 25.8925 5.40199C25.4506 4.96003 24.714 4.96003 24.2587 5.40199L22.1962 7.46449C21.7542 7.91985 21.7542 8.65646 22.1962 9.09843ZM24.9149 15.6743C24.9149 16.3038 25.4506 16.8262 26.0801 16.8262H28.9595C29.589 16.8262 30.1114 16.3038 30.1114 15.6743C30.1114 15.0449 29.589 14.5091 28.9595 14.5091H26.0801C25.4506 14.5091 24.9149 15.0449 24.9149 15.6743ZM22.1962 22.2503C21.7542 22.7056 21.7542 23.4422 22.1962 23.8841L24.2587 25.96C24.714 26.3885 25.4506 26.3752 25.8925 25.9466C26.3346 25.4913 26.3346 24.7547 25.8925 24.3127L23.8301 22.2503C23.3881 21.8217 22.6515 21.8217 22.1962 22.2503ZM15.6337 24.9958C14.9908 24.9958 14.4685 25.518 14.4685 26.1475V29.0404C14.4685 29.6698 14.9908 30.1922 15.6337 30.1922C16.2631 30.1922 16.7854 29.6698 16.7854 29.0404V26.1475C16.7854 25.518 16.2631 24.9958 15.6337 24.9958ZM9.05775 22.2503C8.60239 21.8217 7.85239 21.8217 7.41044 22.2503L5.36133 24.2993C4.91937 24.7412 4.91937 25.4779 5.34794 25.9332C5.7899 26.3618 6.5399 26.3752 6.99525 25.9466L9.04436 23.8841C9.48633 23.4422 9.48633 22.7056 9.05775 22.2503ZM6.33901 15.6743C6.33901 15.0449 5.80329 14.5091 5.17382 14.5091H2.29436C1.6649 14.5091 1.14258 15.0449 1.14258 15.6743C1.14258 16.3038 1.6649 16.8262 2.29436 16.8262H5.17382C5.80329 16.8262 6.33901 16.3038 6.33901 15.6743ZM9.04436 9.09843C9.48633 8.66985 9.48633 7.90646 9.05775 7.46449L7.00865 5.40199C6.56668 4.97342 5.81668 4.96003 5.37471 5.40199C4.93276 5.85735 4.93276 6.60735 5.36133 7.03592L7.41044 9.09843C7.85239 9.54039 8.589 9.54039 9.04436 9.09843Z" fill="#F5F5F5"/>
</g>
<defs>
<clipPath id="clip0_1305_12841">
<rect width="28.9688" height="29.0759" fill="white" transform="translate(1.14258 1.14307)"/>
</clipPath>
</defs>
</svg>
