<svg width="63" height="61" viewBox="0 0 63 61" fill="none" xmlns="http://www.w3.org/2000/svg">
<path d="M14.2492 60.0519V19.5326H0.793143V60.0519H14.2506H14.2492ZM7.52397 14.0013C12.2154 14.0013 15.1361 10.8899 15.1361 7.00154C15.0483 3.02457 12.2154 0 7.61319 0C3.00783 0 0 3.02457 0 7.00119C0 10.8896 2.91967 14.001 7.43581 14.001H7.52292L7.52397 14.0013ZM21.6973 60.0519H35.1523V37.4265C35.1523 36.2171 35.2401 35.0046 35.5956 34.1408C36.5678 31.7202 38.7818 29.2145 42.4999 29.2145C47.3677 29.2145 49.3161 32.9299 49.3161 38.3775V60.0519H62.7707V36.8194C62.7707 24.3741 56.1333 18.5827 47.2805 18.5827C40.0225 18.5827 36.8348 22.643 35.0638 25.4084H35.1533V19.534H21.698C21.8736 23.3352 21.6969 60.0533 21.6969 60.0533L21.6973 60.0519Z" fill="white"/>
</svg>
