<svg width="48" height="49" viewBox="0 0 48 49" fill="none" xmlns="http://www.w3.org/2000/svg">
<path d="M15.4232 39.0563V18.7752H8.68801V39.0563H15.4239H15.4232ZM12.057 16.0066C14.4052 16.0066 15.8671 14.4493 15.8671 12.503C15.8231 10.5124 14.4052 8.99854 12.1016 8.99854C9.79653 8.99854 8.29102 10.5124 8.29102 12.5028C8.29102 14.4491 9.7524 16.0064 12.0129 16.0064H12.0565L12.057 16.0066ZM19.1511 39.0563H25.8858V27.7316C25.8858 27.1263 25.9297 26.5194 26.1076 26.087C26.5943 24.8754 27.7025 23.6213 29.5635 23.6213C31.9999 23.6213 32.9752 25.4809 32.9752 28.2076V39.0563H39.7096V27.4277C39.7096 21.1985 36.3874 18.2997 31.9563 18.2997C28.3235 18.2997 26.7279 20.332 25.8415 21.7162H25.8863V18.7759H19.1515C19.2394 20.6785 19.151 39.057 19.151 39.057L19.1511 39.0563Z" fill="#667085"/>
</svg>
