<svg width="96" height="97" viewBox="0 0 96 97" fill="none" xmlns="http://www.w3.org/2000/svg">
<rect x="6" y="6.99854" width="84" height="84" rx="42" fill="#E7DBFF"/>
<path d="M55.8364 59.7856C53.5584 61.4406 50.815 62.332 47.9992 62.332C45.1835 62.332 42.4401 61.4406 40.1621 59.7856M53.8442 37.0148C56.3749 38.2491 58.45 40.2529 59.7719 42.7391C61.0938 45.2252 61.5947 48.066 61.2028 50.8543M34.7958 50.8542C34.4039 48.0659 34.9048 45.2251 36.2267 42.7389C37.5486 40.2528 39.6237 38.249 42.1544 37.0146M55.3326 48.9987C55.3326 53.0488 52.0493 56.332 47.9992 56.332C43.9491 56.332 40.6659 53.0488 40.6659 48.9987C40.6659 44.9486 43.9491 41.6654 47.9992 41.6654C52.0493 41.6654 55.3326 44.9486 55.3326 48.9987Z" stroke="#53389E" stroke-width="3" stroke-linecap="round" stroke-linejoin="round"/>
<rect x="6" y="6.99854" width="84" height="84" rx="42" stroke="#F4EEFF" stroke-width="12"/>
</svg>
