<svg width="96" height="97" viewBox="0 0 96 97" fill="none" xmlns="http://www.w3.org/2000/svg">
<rect x="12" y="12.9985" width="72" height="72" rx="36" fill="#53389E"/>
<path d="M55.8364 59.7851C53.5584 61.4401 50.815 62.3315 47.9992 62.3315C45.1835 62.3315 42.4401 61.4401 40.1621 59.7851M53.8442 37.0143C56.3749 38.2486 58.45 40.2525 59.7719 42.7386C61.0938 45.2247 61.5947 48.0655 61.2028 50.8538M34.7958 50.8537C34.4039 48.0654 34.9048 45.2246 36.2267 42.7385C37.5486 40.2523 39.6237 38.2485 42.1544 37.0142M55.3326 48.9982C55.3326 53.0483 52.0493 56.3315 47.9992 56.3315C43.9491 56.3315 40.6659 53.0483 40.6659 48.9982C40.6659 44.9481 43.9491 41.6649 47.9992 41.6649C52.0493 41.6649 55.3326 44.9481 55.3326 48.9982Z" stroke="white" stroke-width="3" stroke-linecap="round" stroke-linejoin="round"/>
<rect x="6" y="6.99854" width="84" height="84" rx="42" stroke="#9E77ED" stroke-opacity="0.2" stroke-width="12"/>
</svg>
