<svg width="48" height="48" viewBox="0 0 48 48" fill="none" xmlns="http://www.w3.org/2000/svg">
<path d="M29.5047 14.4781H38.4878V16.6329H29.5047V14.4781ZM20.5036 23.0038C22.4893 22.0644 23.5295 20.6353 23.5295 18.427C23.5295 14.0596 20.2424 13 16.4465 13H6V34.9219H16.7392C20.7647 34.9219 24.5426 33.0075 24.5426 28.5555C24.5426 25.8041 23.2278 23.7695 20.5036 23.0038ZM10.872 16.7397H15.4424C17.203 16.7397 18.7835 17.225 18.7835 19.2462C18.7835 21.1072 17.5542 21.8551 15.8116 21.8551H10.872V16.7397ZM16.0728 31.2H10.8675V25.163H16.1764C18.3197 25.163 19.675 26.049 19.675 28.2928C19.675 30.501 18.0585 31.2 16.0728 31.2ZM42 27.2154C42 22.5185 39.2218 18.6051 34.1966 18.6051C29.3111 18.6051 25.988 22.2425 25.988 27.0106C25.988 31.9524 29.1355 35.3448 34.1966 35.3448C38.0285 35.3448 40.5096 33.6397 41.7028 30.0024H37.8169C37.3936 31.3602 35.6735 32.0726 34.3362 32.0726C31.7516 32.0726 30.4008 30.5767 30.4008 28.0346H41.9685C41.982 27.7719 42 27.4959 42 27.2154ZM30.4008 25.2832C30.5403 23.1952 31.9497 21.8907 34.057 21.8907C36.2724 21.8907 37.3801 23.1774 37.5737 25.2832H30.4008Z" fill="white"/>
</svg>
