<svg width="48" height="48" viewBox="0 0 48 48" fill="none" xmlns="http://www.w3.org/2000/svg">
<g clip-path="url(#clip0_1379_960)">
<path d="M24 9.24141C28.8094 9.24141 29.3789 9.2625 31.2703 9.34687C33.0281 9.42422 33.9773 9.71953 34.6102 9.96563C35.4469 10.2891 36.0516 10.6828 36.6773 11.3086C37.3102 11.9414 37.6969 12.5391 38.0203 13.3758C38.2664 14.0086 38.5617 14.9648 38.6391 16.7156C38.7234 18.6141 38.7445 19.1836 38.7445 23.9859C38.7445 28.7953 38.7234 29.3648 38.6391 31.2563C38.5617 33.0141 38.2664 33.9633 38.0203 34.5961C37.6969 35.4328 37.3031 36.0375 36.6773 36.6633C36.0445 37.2961 35.4469 37.6828 34.6102 38.0062C33.9773 38.2523 33.0211 38.5477 31.2703 38.625C29.3719 38.7094 28.8023 38.7305 24 38.7305C19.1906 38.7305 18.6211 38.7094 16.7297 38.625C14.9719 38.5477 14.0227 38.2523 13.3898 38.0062C12.5531 37.6828 11.9484 37.2891 11.3227 36.6633C10.6898 36.0305 10.3031 35.4328 9.97969 34.5961C9.73359 33.9633 9.43828 33.007 9.36094 31.2563C9.27656 29.3578 9.25547 28.7883 9.25547 23.9859C9.25547 19.1766 9.27656 18.607 9.36094 16.7156C9.43828 14.9578 9.73359 14.0086 9.97969 13.3758C10.3031 12.5391 10.6969 11.9344 11.3227 11.3086C11.9555 10.6758 12.5531 10.2891 13.3898 9.96563C14.0227 9.71953 14.9789 9.42422 16.7297 9.34687C18.6211 9.2625 19.1906 9.24141 24 9.24141ZM24 6C19.1133 6 18.5016 6.02109 16.582 6.10547C14.6695 6.18984 13.3547 6.49922 12.2156 6.94219C11.0273 7.40625 10.0219 8.01797 9.02344 9.02344C8.01797 10.0219 7.40625 11.0273 6.94219 12.2086C6.49922 13.3547 6.18984 14.6625 6.10547 16.575C6.02109 18.5016 6 19.1133 6 24C6 28.8867 6.02109 29.4984 6.10547 31.418C6.18984 33.3305 6.49922 34.6453 6.94219 35.7844C7.40625 36.9727 8.01797 37.9781 9.02344 38.9766C10.0219 39.975 11.0273 40.5937 12.2086 41.0508C13.3547 41.4937 14.6625 41.8031 16.575 41.8875C18.4945 41.9719 19.1062 41.993 23.993 41.993C28.8797 41.993 29.4914 41.9719 31.4109 41.8875C33.3234 41.8031 34.6383 41.4937 35.7773 41.0508C36.9586 40.5937 37.9641 39.975 38.9625 38.9766C39.9609 37.9781 40.5797 36.9727 41.0367 35.7914C41.4797 34.6453 41.7891 33.3375 41.8734 31.425C41.9578 29.5055 41.9789 28.8937 41.9789 24.007C41.9789 19.1203 41.9578 18.5086 41.8734 16.5891C41.7891 14.6766 41.4797 13.3617 41.0367 12.2227C40.5938 11.0273 39.982 10.0219 38.9766 9.02344C37.9781 8.025 36.9727 7.40625 35.7914 6.94922C34.6453 6.50625 33.3375 6.19687 31.425 6.1125C29.4984 6.02109 28.8867 6 24 6Z" fill="white"/>
<path d="M24 14.7539C18.8953 14.7539 14.7539 18.8953 14.7539 24C14.7539 29.1047 18.8953 33.2461 24 33.2461C29.1047 33.2461 33.2461 29.1047 33.2461 24C33.2461 18.8953 29.1047 14.7539 24 14.7539ZM24 29.9977C20.6883 29.9977 18.0023 27.3117 18.0023 24C18.0023 20.6883 20.6883 18.0023 24 18.0023C27.3117 18.0023 29.9977 20.6883 29.9977 24C29.9977 27.3117 27.3117 29.9977 24 29.9977Z" fill="white"/>
<path d="M35.7703 14.3881C35.7703 15.5834 34.8 16.5467 33.6117 16.5467C32.4164 16.5467 31.4531 15.5764 31.4531 14.3881C31.4531 13.1928 32.4234 12.2295 33.6117 12.2295C34.8 12.2295 35.7703 13.1998 35.7703 14.3881Z" fill="white"/>
</g>
<defs>
<clipPath id="clip0_1379_960">
<rect width="36" height="36" fill="white" transform="translate(6 6)"/>
</clipPath>
</defs>
</svg>
