<svg width="48" height="48" viewBox="0 0 48 48" fill="none" xmlns="http://www.w3.org/2000/svg">
<g clip-path="url(#clip0_1379_956)">
<path d="M39.3352 6H8.65781C7.18828 6 6 7.16016 6 8.59453V39.3984C6 40.8328 7.18828 42 8.65781 42H39.3352C40.8047 42 42 40.8328 42 39.4055V8.59453C42 7.16016 40.8047 6 39.3352 6ZM16.6805 36.6773H11.3367V19.493H16.6805V36.6773ZM14.0086 17.1516C12.293 17.1516 10.9078 15.7664 10.9078 14.0578C10.9078 12.3492 12.293 10.9641 14.0086 10.9641C15.7172 10.9641 17.1023 12.3492 17.1023 14.0578C17.1023 15.7594 15.7172 17.1516 14.0086 17.1516ZM36.6773 36.6773H31.3406V28.3242C31.3406 26.3344 31.3055 23.768 28.5633 23.768C25.7859 23.768 25.3641 25.9406 25.3641 28.1836V36.6773H20.0344V19.493H25.1531V21.8414H25.2234C25.9336 20.4914 27.6773 19.0641 30.2719 19.0641C35.6789 19.0641 36.6773 22.6219 36.6773 27.2484V36.6773Z" fill="white"/>
</g>
<defs>
<clipPath id="clip0_1379_956">
<rect width="36" height="36" fill="white" transform="translate(6 6)"/>
</clipPath>
</defs>
</svg>
