<svg width="96" height="97" viewBox="0 0 96 97" fill="none" xmlns="http://www.w3.org/2000/svg">
<rect x="12" y="12.9985" width="72" height="72" rx="36" fill="#2365CE"/>
<path d="M60 45.6652V43.3985C60 41.1583 60 40.0382 59.564 39.1826C59.1805 38.4299 58.5686 37.818 57.816 37.4345C56.9603 36.9985 55.8402 36.9985 53.6 36.9985H42.4C40.1598 36.9985 39.0397 36.9985 38.184 37.4345C37.4314 37.818 36.8195 38.4299 36.436 39.1826C36 40.0382 36 41.1583 36 43.3985V54.5985C36 56.8387 36 57.9589 36.436 58.8145C36.8195 59.5671 37.4314 60.1791 38.184 60.5626C39.0397 60.9985 40.1598 60.9985 42.4 60.9985H44.6667M55.1816 56.6136L52.9172 60.8189C52.5471 61.5063 52.362 61.85 52.1364 61.9397C51.9406 62.0176 51.7195 61.9982 51.5401 61.8876C51.3335 61.7602 51.2108 61.3896 50.9654 60.6485L47.3339 49.6803C47.119 49.0313 47.0115 48.7068 47.0888 48.4907C47.156 48.3026 47.304 48.1546 47.4921 48.0873C47.7082 48.0101 48.0327 48.1175 48.6817 48.3324L59.6499 51.964C60.391 52.2094 60.7616 52.3321 60.889 52.5387C60.9997 52.7181 61.019 52.9392 60.9411 53.135C60.8514 53.3606 60.5077 53.5456 59.8203 53.9158L55.6151 56.1802C55.5103 56.2366 55.458 56.2648 55.4121 56.301C55.3714 56.3332 55.3346 56.37 55.3025 56.4107C55.2662 56.4565 55.238 56.5089 55.1816 56.6136Z" stroke="white" stroke-width="3" stroke-linecap="round" stroke-linejoin="round"/>
<rect x="6" y="6.99854" width="84" height="84" rx="42" stroke="#3A86FF" stroke-opacity="0.2" stroke-width="12"/>
</svg>
