<svg width="202" height="30" viewBox="0 0 262 38" fill="none" xmlns="http://www.w3.org/2000/svg">
    <path fill-rule="evenodd" clip-rule="evenodd"
          d="M19.7576 32.5948V19.2463L36.5 5.40503V32.5948H19.7576ZM0.500019 32.5948V5.40503L17.2424 19.2463V32.5948H0.500019Z"
          fill="black"/>
    <path d="M49.3182 7.72727H52.6818L60.5909 27.0455H60.8636L68.7727 7.72727H72.1364V31H69.5V13.3182H69.2727L62 31H59.4545L52.1818 13.3182H51.9545V31H49.3182V7.72727ZM75.8233 31V13.5455H78.5051V31H75.8233ZM77.1869 10.6364C76.6642 10.6364 76.2134 10.4583 75.8347 10.1023C75.4634 9.74621 75.2778 9.31818 75.2778 8.81818C75.2778 8.31818 75.4634 7.89015 75.8347 7.53409C76.2134 7.17803 76.6642 7 77.1869 7C77.7097 7 78.1566 7.17803 78.5278 7.53409C78.9066 7.89015 79.096 8.31818 79.096 8.81818C79.096 9.31818 78.9066 9.74621 78.5278 10.1023C78.1566 10.4583 77.7097 10.6364 77.1869 10.6364ZM84.4989 7.72727V31H81.817V7.72727H84.4989ZM94.9017 31.3636C93.3259 31.3636 91.9434 30.9886 90.754 30.2386C89.5722 29.4886 88.6479 28.4394 87.9813 27.0909C87.3222 25.7424 86.9926 24.1667 86.9926 22.3636C86.9926 20.5455 87.3222 18.9583 87.9813 17.6023C88.6479 16.2462 89.5722 15.1932 90.754 14.4432C91.9434 13.6932 93.3259 13.3182 94.9017 13.3182C96.4775 13.3182 97.8563 13.6932 99.0381 14.4432C100.227 15.1932 101.152 16.2462 101.811 17.6023C102.477 18.9583 102.811 20.5455 102.811 22.3636C102.811 24.1667 102.477 25.7424 101.811 27.0909C101.152 28.4394 100.227 29.4886 99.0381 30.2386C97.8563 30.9886 96.4775 31.3636 94.9017 31.3636ZM94.9017 28.9545C96.0987 28.9545 97.0835 28.6477 97.8563 28.0341C98.629 27.4205 99.2009 26.6136 99.5722 25.6136C99.9434 24.6136 100.129 23.5303 100.129 22.3636C100.129 21.197 99.9434 20.1098 99.5722 19.1023C99.2009 18.0947 98.629 17.2803 97.8563 16.6591C97.0835 16.0379 96.0987 15.7273 94.9017 15.7273C93.7047 15.7273 92.7199 16.0379 91.9472 16.6591C91.1744 17.2803 90.6025 18.0947 90.2313 19.1023C89.86 20.1098 89.6744 21.197 89.6744 22.3636C89.6744 23.5303 89.86 24.6136 90.2313 25.6136C90.6025 26.6136 91.1744 27.4205 91.9472 28.0341C92.7199 28.6477 93.7047 28.9545 94.9017 28.9545ZM117.668 17.4545L115.259 18.1364C115.108 17.7348 114.884 17.3447 114.589 16.9659C114.301 16.5795 113.907 16.2614 113.407 16.0114C112.907 15.7614 112.267 15.6364 111.486 15.6364C110.418 15.6364 109.528 15.8826 108.816 16.375C108.111 16.8598 107.759 17.4773 107.759 18.2273C107.759 18.8939 108.002 19.4205 108.486 19.8068C108.971 20.1932 109.729 20.5152 110.759 20.7727L113.35 21.4091C114.911 21.7879 116.073 22.3674 116.839 23.1477C117.604 23.9205 117.986 24.9167 117.986 26.1364C117.986 27.1364 117.698 28.0303 117.123 28.8182C116.555 29.6061 115.759 30.2273 114.736 30.6818C113.714 31.1364 112.524 31.3636 111.168 31.3636C109.388 31.3636 107.914 30.9773 106.748 30.2045C105.581 29.4318 104.842 28.303 104.532 26.8182L107.077 26.1818C107.32 27.1212 107.778 27.8258 108.452 28.2955C109.134 28.7652 110.024 29 111.123 29C112.373 29 113.365 28.7348 114.1 28.2045C114.842 27.6667 115.214 27.0227 115.214 26.2727C115.214 25.6667 115.002 25.1591 114.577 24.75C114.153 24.3333 113.502 24.0227 112.623 23.8182L109.714 23.1364C108.115 22.7576 106.941 22.1705 106.191 21.375C105.448 20.572 105.077 19.5682 105.077 18.3636C105.077 17.3788 105.354 16.5076 105.907 15.75C106.467 14.9924 107.229 14.3977 108.191 13.9659C109.161 13.5341 110.259 13.3182 111.486 13.3182C113.214 13.3182 114.57 13.697 115.555 14.4545C116.547 15.2121 117.252 16.2121 117.668 17.4545ZM109.123 6.54545L111.486 9.72727L113.85 6.54545H116.395V6.72727L112.714 11.4545H110.259L106.577 6.72727V6.54545H109.123ZM128.187 7.72727H131.551L139.46 27.0455H139.732L147.641 7.72727H151.005V31H148.369V13.3182H148.141L140.869 31H138.323L131.051 13.3182H130.823V31H128.187V7.72727ZM154.692 31V13.5455H157.374V31H154.692ZM156.056 10.6364C155.533 10.6364 155.082 10.4583 154.703 10.1023C154.332 9.74621 154.147 9.31818 154.147 8.81818C154.147 8.31818 154.332 7.89015 154.703 7.53409C155.082 7.17803 155.533 7 156.056 7C156.578 7 157.025 7.17803 157.397 7.53409C157.775 7.89015 157.965 8.31818 157.965 8.81818C157.965 9.31818 157.775 9.74621 157.397 10.1023C157.025 10.4583 156.578 10.6364 156.056 10.6364ZM163.368 7.72727V31H160.686V7.72727H163.368ZM166.68 13.5455H169.361V32.2727C169.361 33.3485 169.176 34.2803 168.805 35.0682C168.441 35.8561 167.888 36.4659 167.145 36.8977C166.411 37.3295 165.483 37.5455 164.361 37.5455C164.27 37.5455 164.18 37.5455 164.089 37.5455C163.998 37.5455 163.907 37.5455 163.816 37.5455V35.0455C163.907 35.0455 163.99 35.0455 164.066 35.0455C164.142 35.0455 164.225 35.0455 164.316 35.0455C165.134 35.0455 165.733 34.803 166.111 34.3182C166.49 33.8409 166.68 33.1591 166.68 32.2727V13.5455ZM167.998 10.6364C167.475 10.6364 167.024 10.4583 166.645 10.1023C166.274 9.74621 166.089 9.31818 166.089 8.81818C166.089 8.31818 166.274 7.89015 166.645 7.53409C167.024 7.17803 167.475 7 167.998 7C168.52 7 168.967 7.17803 169.339 7.53409C169.717 7.89015 169.907 8.31818 169.907 8.81818C169.907 9.31818 169.717 9.74621 169.339 10.1023C168.967 10.4583 168.52 10.6364 167.998 10.6364ZM177.81 31.4091C176.704 31.4091 175.7 31.2008 174.798 30.7841C173.897 30.3598 173.181 29.75 172.651 28.9545C172.12 28.1515 171.855 27.1818 171.855 26.0455C171.855 25.0455 172.052 24.2348 172.446 23.6136C172.84 22.9848 173.366 22.4924 174.026 22.1364C174.685 21.7803 175.412 21.5152 176.207 21.3409C177.01 21.1591 177.817 21.0152 178.628 20.9091C179.688 20.7727 180.548 20.6705 181.207 20.6023C181.874 20.5265 182.359 20.4015 182.662 20.2273C182.973 20.053 183.128 19.75 183.128 19.3182V19.2273C183.128 18.1061 182.821 17.2348 182.207 16.6136C181.601 15.9924 180.681 15.6818 179.446 15.6818C178.166 15.6818 177.162 15.9621 176.435 16.5227C175.707 17.0833 175.196 17.6818 174.901 18.3182L172.355 17.4091C172.81 16.3485 173.416 15.5227 174.173 14.9318C174.938 14.3333 175.772 13.9167 176.673 13.6818C177.582 13.4394 178.476 13.3182 179.355 13.3182C179.916 13.3182 180.56 13.3864 181.287 13.5227C182.022 13.6515 182.73 13.9205 183.412 14.3295C184.101 14.7386 184.673 15.3561 185.128 16.1818C185.582 17.0076 185.81 18.1136 185.81 19.5V31H183.128V28.6364H182.991C182.81 29.0152 182.507 29.4205 182.082 29.8523C181.658 30.2841 181.094 30.6515 180.389 30.9545C179.685 31.2576 178.825 31.4091 177.81 31.4091ZM178.219 29C179.279 29 180.173 28.7917 180.901 28.375C181.635 27.9583 182.188 27.4205 182.56 26.7614C182.938 26.1023 183.128 25.4091 183.128 24.6818V22.2273C183.014 22.3636 182.764 22.4886 182.378 22.6023C181.999 22.7083 181.56 22.803 181.06 22.8864C180.567 22.9621 180.086 23.0303 179.616 23.0909C179.154 23.1439 178.779 23.1894 178.491 23.2273C177.795 23.3182 177.143 23.4659 176.537 23.6705C175.938 23.8674 175.454 24.1667 175.082 24.5682C174.719 24.9621 174.537 25.5 174.537 26.1818C174.537 27.1136 174.882 27.8182 175.571 28.2955C176.268 28.7652 177.151 29 178.219 29ZM191.786 20.5V31H189.105V13.5455H191.695V16.2727H191.923C192.332 15.3864 192.953 14.6742 193.786 14.1364C194.62 13.5909 195.695 13.3182 197.014 13.3182C198.195 13.3182 199.23 13.5606 200.116 14.0455C201.002 14.5227 201.692 15.25 202.184 16.2273C202.677 17.197 202.923 18.4242 202.923 19.9091V31H200.241V20.0909C200.241 18.7197 199.885 17.6515 199.173 16.8864C198.461 16.1136 197.483 15.7273 196.241 15.7273C195.385 15.7273 194.62 15.9129 193.945 16.2841C193.279 16.6553 192.752 17.197 192.366 17.9091C191.98 18.6212 191.786 19.4848 191.786 20.5ZM213.314 31.3636C211.738 31.3636 210.356 30.9886 209.166 30.2386C207.985 29.4886 207.06 28.4394 206.394 27.0909C205.735 25.7424 205.405 24.1667 205.405 22.3636C205.405 20.5455 205.735 18.9583 206.394 17.6023C207.06 16.2462 207.985 15.1932 209.166 14.4432C210.356 13.6932 211.738 13.3182 213.314 13.3182C214.89 13.3182 216.269 13.6932 217.451 14.4432C218.64 15.1932 219.564 16.2462 220.223 17.6023C220.89 18.9583 221.223 20.5455 221.223 22.3636C221.223 24.1667 220.89 25.7424 220.223 27.0909C219.564 28.4394 218.64 29.4886 217.451 30.2386C216.269 30.9886 214.89 31.3636 213.314 31.3636ZM213.314 28.9545C214.511 28.9545 215.496 28.6477 216.269 28.0341C217.041 27.4205 217.613 26.6136 217.985 25.6136C218.356 24.6136 218.541 23.5303 218.541 22.3636C218.541 21.197 218.356 20.1098 217.985 19.1023C217.613 18.0947 217.041 17.2803 216.269 16.6591C215.496 16.0379 214.511 15.7273 213.314 15.7273C212.117 15.7273 211.132 16.0379 210.36 16.6591C209.587 17.2803 209.015 18.0947 208.644 19.1023C208.273 20.1098 208.087 21.197 208.087 22.3636C208.087 23.5303 208.273 24.6136 208.644 25.6136C209.015 26.6136 209.587 27.4205 210.36 28.0341C211.132 28.6477 212.117 28.9545 213.314 28.9545ZM237.365 13.5455L230.91 31H228.183L221.728 13.5455H224.637L229.456 27.4545H229.637L234.456 13.5455H237.365ZM239.305 31V13.5455H241.986V31H239.305ZM240.668 10.6364C240.145 10.6364 239.695 10.4583 239.316 10.1023C238.945 9.74621 238.759 9.31818 238.759 8.81818C238.759 8.31818 238.945 7.89015 239.316 7.53409C239.695 7.17803 240.145 7 240.668 7C241.191 7 241.638 7.17803 242.009 7.53409C242.388 7.89015 242.577 8.31818 242.577 8.81818C242.577 9.31818 242.388 9.74621 242.009 10.1023C241.638 10.4583 241.191 10.6364 240.668 10.6364ZM252.389 31.3636C250.753 31.3636 249.344 30.9773 248.162 30.2045C246.98 29.4318 246.071 28.3674 245.435 27.0114C244.798 25.6553 244.48 24.1061 244.48 22.3636C244.48 20.5909 244.806 19.0265 245.457 17.6705C246.116 16.3068 247.033 15.2424 248.207 14.4773C249.389 13.7045 250.768 13.3182 252.344 13.3182C253.571 13.3182 254.677 13.5455 255.662 14C256.647 14.4545 257.454 15.0909 258.082 15.9091C258.711 16.7273 259.101 17.6818 259.253 18.7727H256.571C256.366 17.9773 255.912 17.2727 255.207 16.6591C254.51 16.0379 253.571 15.7273 252.389 15.7273C251.344 15.7273 250.427 16 249.639 16.5455C248.859 17.0833 248.249 17.8447 247.81 18.8295C247.378 19.8068 247.162 20.9545 247.162 22.2727C247.162 23.6212 247.374 24.7955 247.798 25.7955C248.23 26.7955 248.836 27.572 249.616 28.125C250.404 28.678 251.329 28.9545 252.389 28.9545C253.086 28.9545 253.719 28.8333 254.287 28.5909C254.855 28.3485 255.336 28 255.73 27.5455C256.124 27.0909 256.404 26.5455 256.571 25.9091H259.253C259.101 26.9394 258.726 27.8674 258.128 28.6932C257.537 29.5114 256.753 30.1629 255.776 30.6477C254.806 31.125 253.677 31.3636 252.389 31.3636ZM251.071 11.1818L253.844 5.90909H256.98L253.435 11.1818H251.071Z"
          fill="black"/>
</svg>
