<svg width="202" height="30" viewBox="0 0 790 108" fill="none" xmlns="http://www.w3.org/2000/svg">
<path fill-rule="evenodd" clip-rule="evenodd" d="M0.340897 92.1409V15.8594L47.3119 54.6913V92.1409H0.340897ZM54.3688 92.1409V54.6914L101.34 15.8594V92.1409H54.3688Z" fill="black"/>
<path d="M129.78 21.708H144.254L163.637 69.0192H164.402L183.786 21.708H198.26V87H186.91V42.1436H186.305L168.26 86.8087H159.78L141.735 42.048H141.129V87H129.78V21.708ZM208.834 87V38.031H220.375V87H208.834ZM214.636 31.081C212.809 31.081 211.236 30.4752 209.918 29.2638C208.6 28.031 207.941 26.5539 207.941 24.8323C207.941 23.0895 208.6 21.6123 209.918 20.4009C211.236 19.1681 212.809 18.5518 214.636 18.5518C216.486 18.5518 218.058 19.1681 219.355 20.4009C220.673 21.6123 221.331 23.0895 221.331 24.8323C221.331 26.5539 220.673 28.031 219.355 29.2638C218.058 30.4752 216.486 31.081 214.636 31.081ZM241.988 21.708V87H230.447V21.708H241.988ZM273.42 87.9564C268.638 87.9564 264.494 86.9044 260.987 84.8002C257.48 82.6961 254.759 79.7524 252.825 75.9692C250.912 72.186 249.956 67.7652 249.956 62.7068C249.956 57.6484 250.912 53.2169 252.825 49.4125C254.759 45.608 257.48 42.6537 260.987 40.5496C264.494 38.4454 268.638 37.3934 273.42 37.3934C278.202 37.3934 282.347 38.4454 285.854 40.5496C289.361 42.6537 292.071 45.608 293.983 49.4125C295.918 53.2169 296.885 57.6484 296.885 62.7068C296.885 67.7652 295.918 72.186 293.983 75.9692C292.071 79.7524 289.361 82.6961 285.854 84.8002C282.347 86.9044 278.202 87.9564 273.42 87.9564ZM273.484 78.711C276.077 78.711 278.245 77.999 279.988 76.575C281.731 75.1297 283.027 73.1956 283.877 70.7726C284.749 68.3497 285.184 65.6504 285.184 62.6749C285.184 59.6781 284.749 56.9682 283.877 54.5453C283.027 52.1011 281.731 50.1563 279.988 48.7111C278.245 47.2658 276.077 46.5432 273.484 46.5432C270.827 46.5432 268.617 47.2658 266.853 48.7111C265.11 50.1563 263.803 52.1011 262.931 54.5453C262.081 56.9682 261.656 59.6781 261.656 62.6749C261.656 65.6504 262.081 68.3497 262.931 70.7726C263.803 73.1956 265.11 75.1297 266.853 76.575C268.617 77.999 270.827 78.711 273.484 78.711ZM343.588 50.9746L333.067 52.1223C332.77 51.0596 332.249 50.0607 331.505 49.1255C330.782 48.1904 329.805 47.4358 328.572 46.862C327.339 46.2881 325.83 46.0012 324.045 46.0012C321.643 46.0012 319.624 46.5219 317.987 47.5634C316.372 48.6048 315.575 49.9544 315.596 51.6122C315.575 53.0363 316.096 54.1946 317.159 55.0873C318.243 55.9799 320.028 56.7132 322.515 57.287L330.867 59.0724C335.501 60.0713 338.944 61.6547 341.197 63.8226C343.471 65.9905 344.619 68.8279 344.64 72.3348C344.619 75.4166 343.715 78.1371 341.93 80.4963C340.166 82.8342 337.711 84.6621 334.566 85.9798C331.42 87.2976 327.807 87.9564 323.726 87.9564C317.732 87.9564 312.908 86.7024 309.252 84.1945C305.596 81.6653 303.418 78.1477 302.717 73.6419L313.971 72.558C314.481 74.7684 315.565 76.4368 317.222 77.5633C318.88 78.6897 321.037 79.2529 323.694 79.2529C326.436 79.2529 328.636 78.6897 330.294 77.5633C331.973 76.4368 332.812 75.0447 332.812 73.3869C332.812 71.9841 332.27 70.8258 331.186 69.9119C330.123 68.9979 328.466 68.2966 326.213 67.8077L317.86 66.0543C313.163 65.0766 309.688 63.4294 307.435 61.1127C305.182 58.7748 304.066 55.8205 304.087 52.2499C304.066 49.2318 304.884 46.6176 306.542 44.4072C308.221 42.1755 310.549 40.4539 313.524 39.2425C316.521 38.0097 319.975 37.3934 323.885 37.3934C329.624 37.3934 334.14 38.6155 337.435 41.0597C340.75 43.5039 342.801 46.8089 343.588 50.9746ZM317.637 17.946L324.109 26.1075L330.58 17.946H340.687V18.3924L328.636 32.1649H319.613L307.531 18.3924V17.946H317.637ZM373.344 21.708H387.818L407.202 69.0192H407.967L427.35 21.708H441.824V87H430.475V42.1436H429.869L411.824 86.8087H403.344L385.299 42.048H384.694V87H373.344V21.708ZM452.398 87V38.031H463.939V87H452.398ZM458.201 31.081C456.373 31.081 454.8 30.4752 453.482 29.2638C452.165 28.031 451.506 26.5539 451.506 24.8323C451.506 23.0895 452.165 21.6123 453.482 20.4009C454.8 19.1681 456.373 18.5518 458.201 18.5518C460.05 18.5518 461.623 19.1681 462.919 20.4009C464.237 21.6123 464.896 23.0895 464.896 24.8323C464.896 26.5539 464.237 28.031 462.919 29.2638C461.623 30.4752 460.05 31.081 458.201 31.081ZM485.552 21.708V87H474.011V21.708H485.552ZM495.624 38.031H507.165V89.8055C507.165 93.3337 506.496 96.2455 505.157 98.5409C503.818 100.836 501.884 102.547 499.355 103.674C496.825 104.8 493.754 105.363 490.141 105.363C489.716 105.363 489.323 105.353 488.961 105.331C488.6 105.331 488.207 105.321 487.782 105.3V95.8948C488.101 95.916 488.388 95.9266 488.643 95.9266C488.898 95.9479 489.163 95.9585 489.44 95.9585C491.65 95.9585 493.233 95.4165 494.19 94.3326C495.146 93.2699 495.624 91.7077 495.624 89.6461V38.031ZM501.363 31.081C499.514 31.081 497.931 30.4752 496.613 29.2638C495.316 28.031 494.668 26.5539 494.668 24.8323C494.668 23.0895 495.316 21.6123 496.613 20.4009C497.931 19.1681 499.514 18.5518 501.363 18.5518C503.191 18.5518 504.753 19.1681 506.05 20.4009C507.367 21.6123 508.026 23.0895 508.026 24.8323C508.026 26.5539 507.367 28.031 506.05 29.2638C504.753 30.4752 503.191 31.081 501.363 31.081ZM531.329 87.9883C528.226 87.9883 525.431 87.4357 522.944 86.3305C520.479 85.204 518.523 83.5462 517.078 81.3571C515.654 79.1679 514.942 76.4687 514.942 73.2593C514.942 70.4963 515.452 68.2115 516.472 66.405C517.493 64.5984 518.885 63.1531 520.649 62.0692C522.413 60.9852 524.4 60.1669 526.61 59.6143C528.842 59.0405 531.148 58.626 533.529 58.371C536.398 58.0734 538.725 57.8078 540.51 57.574C542.296 57.3189 543.592 56.9363 544.4 56.4262C545.229 55.8949 545.643 55.0766 545.643 53.9714V53.7801C545.643 51.3784 544.931 49.5187 543.507 48.201C542.083 46.8832 540.032 46.2244 537.354 46.2244C534.528 46.2244 532.285 46.8407 530.627 48.0735C528.991 49.3062 527.886 50.7621 527.312 52.4411L516.536 50.9109C517.386 47.9353 518.789 45.4486 520.744 43.4507C522.7 41.4316 525.091 39.9226 527.918 38.9237C530.744 37.9035 533.869 37.3934 537.291 37.3934C539.65 37.3934 541.998 37.6697 544.336 38.2223C546.674 38.7749 548.81 39.6888 550.744 40.964C552.678 42.218 554.23 43.929 555.399 46.0969C556.589 48.2647 557.184 50.9746 557.184 54.2265V87H546.09V80.2731H545.707C545.006 81.6334 544.017 82.9086 542.742 84.0988C541.488 85.2678 539.905 86.2136 537.992 86.9362C536.1 87.6376 533.879 87.9883 531.329 87.9883ZM534.326 79.508C536.642 79.508 538.651 79.051 540.351 78.1371C542.051 77.2019 543.359 75.9692 544.272 74.4389C545.208 72.9087 545.675 71.2402 545.675 69.4336V63.6632C545.314 63.9608 544.698 64.2371 543.826 64.4921C542.976 64.7472 542.02 64.9703 540.957 65.1616C539.894 65.3529 538.842 65.5229 537.801 65.6717C536.759 65.8205 535.856 65.948 535.091 66.0543C533.369 66.2881 531.828 66.6706 530.468 67.202C529.108 67.7333 528.034 68.4772 527.248 69.4336C526.462 70.3688 526.068 71.5803 526.068 73.0681C526.068 75.1935 526.844 76.7981 528.396 77.8821C529.947 78.966 531.924 79.508 534.326 79.508ZM578.534 58.3072V87H566.993V38.031H578.024V46.3519H578.598C579.724 43.6101 581.52 41.4316 583.986 39.8163C586.472 38.201 589.544 37.3934 593.199 37.3934C596.579 37.3934 599.522 38.116 602.03 39.5613C604.56 41.0065 606.515 43.1 607.896 45.8418C609.299 48.5836 609.99 51.9098 609.969 55.8205V87H598.428V57.6058C598.428 54.3327 597.578 51.7716 595.877 49.9226C594.198 48.0735 591.871 47.1489 588.895 47.1489C586.876 47.1489 585.08 47.5953 583.508 48.4879C581.956 49.3593 580.734 50.6239 579.841 52.2817C578.97 53.9395 578.534 55.948 578.534 58.3072ZM641.266 87.9564C636.483 87.9564 632.339 86.9044 628.832 84.8002C625.325 82.6961 622.605 79.7524 620.67 75.9692C618.758 72.186 617.801 67.7652 617.801 62.7068C617.801 57.6484 618.758 53.2169 620.67 49.4125C622.605 45.608 625.325 42.6537 628.832 40.5496C632.339 38.4454 636.483 37.3934 641.266 37.3934C646.048 37.3934 650.192 38.4454 653.699 40.5496C657.206 42.6537 659.916 45.608 661.829 49.4125C663.763 53.2169 664.73 57.6484 664.73 62.7068C664.73 67.7652 663.763 72.186 661.829 75.9692C659.916 79.7524 657.206 82.6961 653.699 84.8002C650.192 86.9044 646.048 87.9564 641.266 87.9564ZM641.329 78.711C643.922 78.711 646.09 77.999 647.833 76.575C649.576 75.1297 650.872 73.1956 651.722 70.7726C652.594 68.3497 653.03 65.6504 653.03 62.6749C653.03 59.6781 652.594 56.9682 651.722 54.5453C650.872 52.1011 649.576 50.1563 647.833 48.7111C646.09 47.2658 643.922 46.5432 641.329 46.5432C638.673 46.5432 636.462 47.2658 634.698 48.7111C632.955 50.1563 631.648 52.1011 630.777 54.5453C629.927 56.9682 629.501 59.6781 629.501 62.6749C629.501 65.6504 629.927 68.3497 630.777 70.7726C631.648 73.1956 632.955 75.1297 634.698 76.575C636.462 77.999 638.673 78.711 641.329 78.711ZM714.804 38.031L697.366 87H684.613L667.174 38.031H679.48L690.734 74.4071H691.245L702.53 38.031H714.804ZM720.995 87V38.031H732.536V87H720.995ZM726.797 31.081C724.97 31.081 723.397 30.4752 722.079 29.2638C720.761 28.031 720.102 26.5539 720.102 24.8323C720.102 23.0895 720.761 21.6123 722.079 20.4009C723.397 19.1681 724.97 18.5518 726.797 18.5518C728.646 18.5518 730.219 19.1681 731.516 20.4009C732.834 21.6123 733.492 23.0895 733.492 24.8323C733.492 26.5539 732.834 28.031 731.516 29.2638C730.219 30.4752 728.646 31.081 726.797 31.081ZM763.968 87.9564C759.08 87.9564 754.882 86.8831 751.375 84.7365C747.89 82.5898 745.201 79.6249 743.309 75.8417C741.439 72.0372 740.504 67.6589 740.504 62.7068C740.504 57.7334 741.46 53.3444 743.373 49.54C745.286 45.7143 747.985 42.7387 751.471 40.6133C754.978 38.4667 759.122 37.3934 763.904 37.3934C767.879 37.3934 771.396 38.1266 774.457 39.5932C777.539 41.0384 779.994 43.0894 781.822 45.7462C783.649 48.3816 784.691 51.4635 784.946 54.9916H773.915C773.469 52.6324 772.406 50.6664 770.727 49.0937C769.069 47.4996 766.848 46.7026 764.064 46.7026C761.705 46.7026 759.632 47.3402 757.847 48.6154C756.062 49.8694 754.67 51.676 753.671 54.0352C752.693 56.3944 752.204 59.2211 752.204 62.5155C752.204 65.8524 752.693 68.7216 753.671 71.1233C754.648 73.5038 756.019 75.3422 757.783 76.6387C759.569 77.914 761.662 78.5516 764.064 78.5516C765.764 78.5516 767.284 78.2328 768.623 77.5951C769.983 76.9363 771.12 75.9905 772.034 74.7577C772.948 73.525 773.575 72.0266 773.915 70.2625H784.946C784.67 73.7269 783.649 76.7981 781.885 79.4761C780.121 82.1329 777.72 84.2157 774.68 85.7248C771.641 87.2125 768.07 87.9564 763.968 87.9564ZM759.441 31.5911L766.582 17.0215H777.868L768.081 31.5911H759.441Z" fill="black"/>
</svg>
