<svg width="202" height="30" viewBox="0 0 790 109" fill="none" xmlns="http://www.w3.org/2000/svg">
<path fill-rule="evenodd" clip-rule="evenodd" d="M54.3688 92.4719V55.0224L101.34 16.1904V92.4719H54.3688ZM0.340897 92.4719V16.1904L47.3119 55.0224V92.4719H0.340897Z" fill="white"/>
<path d="M129.78 22.039H144.254L163.637 69.3502H164.402L183.786 22.039H198.26V87.3311H186.91V42.4747H186.305L168.26 87.1398H159.78L141.735 42.379H141.129V87.3311H129.78V22.039ZM208.834 87.3311V38.362H220.375V87.3311H208.834ZM214.636 31.412C212.809 31.412 211.236 30.8063 209.918 29.5948C208.6 28.3621 207.941 26.8849 207.941 25.1634C207.941 23.4205 208.6 21.9434 209.918 20.7319C211.236 19.4992 212.809 18.8828 214.636 18.8828C216.486 18.8828 218.058 19.4992 219.355 20.7319C220.673 21.9434 221.331 23.4205 221.331 25.1634C221.331 26.8849 220.673 28.3621 219.355 29.5948C218.058 30.8063 216.486 31.412 214.636 31.412ZM241.988 22.039V87.3311H230.447V22.039H241.988ZM273.42 88.2875C268.638 88.2875 264.494 87.2354 260.987 85.1313C257.48 83.0271 254.759 80.0835 252.825 76.3003C250.912 72.5171 249.956 68.0963 249.956 63.0378C249.956 57.9794 250.912 53.548 252.825 49.7435C254.759 45.9391 257.48 42.9848 260.987 40.8806C264.494 38.7765 268.638 37.7244 273.42 37.7244C278.202 37.7244 282.347 38.7765 285.854 40.8806C289.361 42.9848 292.071 45.9391 293.983 49.7435C295.918 53.548 296.885 57.9794 296.885 63.0378C296.885 68.0963 295.918 72.5171 293.983 76.3003C292.071 80.0835 289.361 83.0271 285.854 85.1313C282.347 87.2354 278.202 88.2875 273.42 88.2875ZM273.484 79.042C276.077 79.042 278.245 78.33 279.988 76.906C281.731 75.4607 283.027 73.5266 283.877 71.1037C284.749 68.6807 285.184 65.9815 285.184 63.006C285.184 60.0092 284.749 57.2993 283.877 54.8763C283.027 52.4321 281.731 50.4874 279.988 49.0421C278.245 47.5969 276.077 46.8742 273.484 46.8742C270.827 46.8742 268.617 47.5969 266.853 49.0421C265.11 50.4874 263.803 52.4321 262.931 54.8763C262.081 57.2993 261.656 60.0092 261.656 63.006C261.656 65.9815 262.081 68.6807 262.931 71.1037C263.803 73.5266 265.11 75.4607 266.853 76.906C268.617 78.33 270.827 79.042 273.484 79.042ZM343.588 51.3057L333.067 52.4534C332.77 51.3907 332.249 50.3918 331.505 49.4566C330.782 48.5214 329.805 47.7669 328.572 47.193C327.339 46.6192 325.83 46.3323 324.045 46.3323C321.643 46.3323 319.624 46.853 317.987 47.8944C316.372 48.9359 315.575 50.2855 315.596 51.9433C315.575 53.3673 316.096 54.5256 317.159 55.4183C318.243 56.311 320.028 57.0442 322.515 57.6181L330.867 59.4034C335.501 60.4024 338.944 61.9858 341.197 64.1537C343.471 66.3216 344.619 69.159 344.64 72.6659C344.619 75.7477 343.715 78.4682 341.93 80.8274C340.166 83.1653 337.711 84.9931 334.566 86.3109C331.42 87.6286 327.807 88.2875 323.726 88.2875C317.732 88.2875 312.908 87.0335 309.252 84.5255C305.596 81.9963 303.418 78.4788 302.717 73.973L313.971 72.889C314.481 75.0994 315.565 76.7679 317.222 77.8943C318.88 79.0208 321.037 79.584 323.694 79.584C326.436 79.584 328.636 79.0208 330.294 77.8943C331.973 76.7679 332.812 75.3757 332.812 73.7179C332.812 72.3152 332.27 71.1568 331.186 70.2429C330.123 69.329 328.466 68.6276 326.213 68.1388L317.86 66.3853C313.163 65.4076 309.688 63.7605 307.435 61.4438C305.182 59.1059 304.066 56.1516 304.087 52.5809C304.066 49.5629 304.884 46.9486 306.542 44.7382C308.221 42.5066 310.549 40.785 313.524 39.5735C316.521 38.3408 319.975 37.7244 323.885 37.7244C329.624 37.7244 334.14 38.9465 337.435 41.3907C340.75 43.8349 342.801 47.1399 343.588 51.3057ZM317.637 18.2771L324.109 26.4386L330.58 18.2771H340.687V18.7234L328.636 32.496H319.613L307.531 18.7234V18.2771H317.637ZM373.344 22.039H387.818L407.202 69.3502H407.967L427.35 22.039H441.824V87.3311H430.475V42.4747H429.869L411.824 87.1398H403.344L385.299 42.379H384.694V87.3311H373.344V22.039ZM452.398 87.3311V38.362H463.939V87.3311H452.398ZM458.201 31.412C456.373 31.412 454.8 30.8063 453.482 29.5948C452.165 28.3621 451.506 26.8849 451.506 25.1634C451.506 23.4205 452.165 21.9434 453.482 20.7319C454.8 19.4992 456.373 18.8828 458.201 18.8828C460.05 18.8828 461.623 19.4992 462.919 20.7319C464.237 21.9434 464.896 23.4205 464.896 25.1634C464.896 26.8849 464.237 28.3621 462.919 29.5948C461.623 30.8063 460.05 31.412 458.201 31.412ZM485.552 22.039V87.3311H474.011V22.039H485.552ZM495.624 38.362H507.165V90.1366C507.165 93.6647 506.496 96.5765 505.157 98.8719C503.818 101.167 501.884 102.878 499.355 104.005C496.825 105.131 493.754 105.694 490.141 105.694C489.716 105.694 489.323 105.684 488.961 105.663C488.6 105.663 488.207 105.652 487.782 105.631V96.2258C488.101 96.2471 488.388 96.2577 488.643 96.2577C488.898 96.279 489.163 96.2896 489.44 96.2896C491.65 96.2896 493.233 95.7476 494.19 94.6637C495.146 93.601 495.624 92.0388 495.624 89.9772V38.362ZM501.363 31.412C499.514 31.412 497.931 30.8063 496.613 29.5948C495.316 28.3621 494.668 26.8849 494.668 25.1634C494.668 23.4205 495.316 21.9434 496.613 20.7319C497.931 19.4992 499.514 18.8828 501.363 18.8828C503.191 18.8828 504.753 19.4992 506.05 20.7319C507.367 21.9434 508.026 23.4205 508.026 25.1634C508.026 26.8849 507.367 28.3621 506.05 29.5948C504.753 30.8063 503.191 31.412 501.363 31.412ZM531.329 88.3194C528.226 88.3194 525.431 87.7668 522.944 86.6616C520.479 85.5351 518.523 83.8773 517.078 81.6881C515.654 79.499 514.942 76.7997 514.942 73.5904C514.942 70.8274 515.452 68.5426 516.472 66.736C517.493 64.9294 518.885 63.4842 520.649 62.4002C522.413 61.3163 524.4 60.498 526.61 59.9454C528.842 59.3715 531.148 58.9571 533.529 58.702C536.398 58.4045 538.725 58.1388 540.51 57.905C542.296 57.65 543.592 57.2674 544.4 56.7573C545.229 56.226 545.643 55.4077 545.643 54.3025V54.1112C545.643 51.7095 544.931 49.8498 543.507 48.532C542.083 47.2143 540.032 46.5554 537.354 46.5554C534.528 46.5554 532.285 47.1718 530.627 48.4045C528.991 49.6372 527.886 51.0931 527.312 52.7722L516.536 51.2419C517.386 48.2664 518.789 45.7797 520.744 43.7818C522.7 41.7627 525.091 40.2536 527.918 39.2547C530.744 38.2345 533.869 37.7244 537.291 37.7244C539.65 37.7244 541.998 38.0007 544.336 38.5533C546.674 39.1059 548.81 40.0199 550.744 41.2951C552.678 42.5491 554.23 44.26 555.399 46.4279C556.589 48.5958 557.184 51.3057 557.184 54.5575V87.3311H546.09V80.6042H545.707C545.006 81.9644 544.017 83.2397 542.742 84.4299C541.488 85.5989 539.905 86.5447 537.992 87.2673C536.1 87.9687 533.879 88.3194 531.329 88.3194ZM534.326 79.8391C536.642 79.8391 538.651 79.3821 540.351 78.4682C542.051 77.533 543.359 76.3003 544.272 74.77C545.208 73.2397 545.675 71.5713 545.675 69.7647V63.9943C545.314 64.2918 544.698 64.5681 543.826 64.8232C542.976 65.0782 542.02 65.3014 540.957 65.4927C539.894 65.6839 538.842 65.854 537.801 66.0028C536.759 66.1515 535.856 66.2791 535.091 66.3853C533.369 66.6191 531.828 67.0017 530.468 67.533C529.108 68.0644 528.034 68.8083 527.248 69.7647C526.462 70.6999 526.068 71.9113 526.068 73.3991C526.068 75.5245 526.844 77.1292 528.396 78.2131C529.947 79.2971 531.924 79.8391 534.326 79.8391ZM578.534 58.6383V87.3311H566.993V38.362H578.024V46.683H578.598C579.724 43.9412 581.52 41.7627 583.986 40.1474C586.472 38.5321 589.544 37.7244 593.199 37.7244C596.579 37.7244 599.522 38.4471 602.03 39.8923C604.56 41.3376 606.515 43.4311 607.896 46.1729C609.299 48.9146 609.99 52.2408 609.969 56.1516V87.3311H598.428V57.9369C598.428 54.6638 597.578 52.1027 595.877 50.2536C594.198 48.4045 591.871 47.48 588.895 47.48C586.876 47.48 585.08 47.9263 583.508 48.819C581.956 49.6904 580.734 50.955 579.841 52.6128C578.97 54.2706 578.534 56.2791 578.534 58.6383ZM641.266 88.2875C636.483 88.2875 632.339 87.2354 628.832 85.1313C625.325 83.0271 622.605 80.0835 620.67 76.3003C618.758 72.5171 617.801 68.0963 617.801 63.0378C617.801 57.9794 618.758 53.548 620.67 49.7435C622.605 45.9391 625.325 42.9848 628.832 40.8806C632.339 38.7765 636.483 37.7244 641.266 37.7244C646.048 37.7244 650.192 38.7765 653.699 40.8806C657.206 42.9848 659.916 45.9391 661.829 49.7435C663.763 53.548 664.73 57.9794 664.73 63.0378C664.73 68.0963 663.763 72.5171 661.829 76.3003C659.916 80.0835 657.206 83.0271 653.699 85.1313C650.192 87.2354 646.048 88.2875 641.266 88.2875ZM641.329 79.042C643.922 79.042 646.09 78.33 647.833 76.906C649.576 75.4607 650.872 73.5266 651.722 71.1037C652.594 68.6807 653.03 65.9815 653.03 63.006C653.03 60.0092 652.594 57.2993 651.722 54.8763C650.872 52.4321 649.576 50.4874 647.833 49.0421C646.09 47.5969 643.922 46.8742 641.329 46.8742C638.673 46.8742 636.462 47.5969 634.698 49.0421C632.955 50.4874 631.648 52.4321 630.777 54.8763C629.927 57.2993 629.501 60.0092 629.501 63.006C629.501 65.9815 629.927 68.6807 630.777 71.1037C631.648 73.5266 632.955 75.4607 634.698 76.906C636.462 78.33 638.673 79.042 641.329 79.042ZM714.804 38.362L697.366 87.3311H684.613L667.174 38.362H679.48L690.734 74.7381H691.245L702.53 38.362H714.804ZM720.995 87.3311V38.362H732.536V87.3311H720.995ZM726.797 31.412C724.97 31.412 723.397 30.8063 722.079 29.5948C720.761 28.3621 720.102 26.8849 720.102 25.1634C720.102 23.4205 720.761 21.9434 722.079 20.7319C723.397 19.4992 724.97 18.8828 726.797 18.8828C728.646 18.8828 730.219 19.4992 731.516 20.7319C732.834 21.9434 733.492 23.4205 733.492 25.1634C733.492 26.8849 732.834 28.3621 731.516 29.5948C730.219 30.8063 728.646 31.412 726.797 31.412ZM763.968 88.2875C759.08 88.2875 754.882 87.2142 751.375 85.0675C747.89 82.9209 745.201 79.9559 743.309 76.1728C741.439 72.3683 740.504 67.99 740.504 63.0378C740.504 58.0644 741.46 53.6755 743.373 49.871C745.286 46.0453 747.985 43.0698 751.471 40.9444C754.978 38.7978 759.122 37.7244 763.904 37.7244C767.879 37.7244 771.396 38.4577 774.457 39.9242C777.539 41.3695 779.994 43.4205 781.822 46.0772C783.649 48.7127 784.691 51.7945 784.946 55.3227H773.915C773.469 52.9635 772.406 50.9975 770.727 49.4247C769.069 47.8307 766.848 47.0336 764.064 47.0336C761.705 47.0336 759.632 47.6713 757.847 48.9465C756.062 50.2005 754.67 52.0071 753.671 54.3662C752.693 56.7254 752.204 59.5522 752.204 62.8466C752.204 66.1834 752.693 69.0527 753.671 71.4544C754.648 73.8348 756.019 75.6733 757.783 76.9698C759.569 78.245 761.662 78.8826 764.064 78.8826C765.764 78.8826 767.284 78.5638 768.623 77.9262C769.983 77.2673 771.12 76.3215 772.034 75.0888C772.948 73.8561 773.575 72.3577 773.915 70.5936H784.946C784.67 74.058 783.649 77.1292 781.885 79.8072C780.121 82.4639 777.72 84.5468 774.68 86.0558C771.641 87.5436 768.07 88.2875 763.968 88.2875ZM759.441 31.9221L766.582 17.3526H777.868L768.081 31.9221H759.441Z" fill="white"/>
</svg>
